<svg width="1002" height="282" viewBox="0 0 1002 282" fill="none" xmlns="http://www.w3.org/2000/svg">
<path d="M395.204 55.1914C396.201 54.1635 397.397 53.3502 398.72 52.8016C400.042 52.253 401.463 51.9807 402.894 52.0014C404.373 51.9783 405.841 52.2483 407.214 52.7959C408.587 53.3434 409.838 54.1576 410.894 55.1914C411.983 56.2145 412.843 57.4561 413.419 58.8347C413.994 60.2133 414.272 61.6979 414.234 63.1914C414.236 64.6236 413.941 66.0407 413.366 67.3525C412.791 68.6643 411.949 69.8422 410.894 70.8114C409.851 71.8683 408.604 72.7029 407.229 73.2649C405.854 73.8269 404.38 74.1047 402.894 74.0813C401.456 74.1014 400.029 73.8209 398.704 73.2578C397.38 72.6947 396.188 71.8615 395.204 70.8114C394.185 69.8223 393.376 68.6375 392.826 67.3281C392.277 66.0186 391.997 64.6116 392.004 63.1914C391.962 61.7099 392.224 60.2355 392.775 58.8594C393.325 57.4834 394.152 56.2349 395.204 55.1914ZM412.204 221.791C412.23 223.018 412.005 224.238 411.543 225.374C411.08 226.511 410.39 227.541 409.514 228.401C408.666 229.25 407.659 229.924 406.551 230.383C405.443 230.843 404.254 231.08 403.054 231.08C401.855 231.08 400.666 230.843 399.558 230.383C398.449 229.924 397.442 229.25 396.594 228.401C395.721 227.54 395.033 226.51 394.572 225.373C394.111 224.236 393.887 223.018 393.914 221.791V103.521C393.899 102.312 394.136 101.112 394.612 99.9997C395.087 98.8872 395.79 97.8863 396.674 97.0614C397.526 96.1977 398.544 95.515 399.666 95.0545C400.788 94.5939 401.992 94.365 403.204 94.3814C404.396 94.3594 405.579 94.5864 406.677 95.0479C407.776 95.5094 408.766 96.1952 409.584 97.0614C410.432 97.9078 411.1 98.9158 411.55 100.025C412 101.135 412.223 102.324 412.204 103.521V221.791Z" fill="#EAEAEA"/>
<path d="M197.593 228.011C189.013 233.711 178.063 231.271 173.143 222.581L122.143 132.451C117.223 123.761 120.143 112.091 128.773 106.451C137.363 100.761 148.313 103.191 153.233 111.881L174.503 149.451L204.273 202.011C209.153 210.661 206.183 222.321 197.593 228.011Z" fill="#EAEAEA"/>
<path d="M276.003 211.41C276.046 214.715 275.275 217.981 273.758 220.917C272.24 223.854 270.024 226.373 267.303 228.25C258.713 233.95 247.493 231.03 242.233 221.74L159.843 76.25L154.303 66.38L147.513 54.38C146.603 52.6361 145.233 51.175 143.551 50.1553C141.869 49.1357 139.94 48.5966 137.973 48.5966C136.006 48.5966 134.077 49.1357 132.395 50.1553C130.713 51.175 129.342 52.6361 128.433 54.38L121.653 66.38L116.023 76.33L33.6528 221.74C28.4528 230.91 17.4428 233.87 8.89282 228.45C0.0628166 222.86 -2.59718 210.21 2.75282 200.77L103.043 23.66L105.133 19.97C108.319 14.1801 112.884 9.26507 118.423 5.66C124.235 1.96826 130.977 0.00526701 137.863 0C143.536 0.0480936 149.123 1.38571 154.203 3.91165C159.282 6.4376 163.721 10.0857 167.183 14.58C168.458 16.2049 169.605 17.9268 170.613 19.73L171.973 22.13L273.303 201.11C275.077 204.253 276.007 207.801 276.003 211.41Z" fill="#EAEAEA"/>
<path d="M102.733 231.758C118.66 231.758 131.573 218.846 131.573 202.918C131.573 186.99 118.66 174.078 102.733 174.078C86.8047 174.078 73.8926 186.99 73.8926 202.918C73.8926 218.846 86.8047 231.758 102.733 231.758Z" fill="#EAEAEA"/>
<path d="M317.462 222.09C317.486 223.283 317.259 224.468 316.798 225.568C316.336 226.669 315.65 227.66 314.782 228.48C313.049 230.154 310.733 231.09 308.322 231.09C305.912 231.09 303.596 230.154 301.862 228.48C300.995 227.66 300.309 226.669 299.847 225.568C299.385 224.468 299.159 223.283 299.182 222.09V54.3299C299.147 53.1248 299.367 51.9259 299.829 50.8123C300.291 49.6987 300.984 48.6958 301.862 47.8699C303.617 46.2363 305.925 45.3281 308.322 45.3281C310.72 45.3281 313.028 46.2363 314.782 47.8699C315.661 48.6958 316.354 49.6987 316.816 50.8123C317.278 51.9259 317.498 53.1248 317.462 54.3299V222.09Z" fill="#EAEAEA"/>
<path d="M364.923 222.089C364.944 223.283 364.716 224.468 364.253 225.568C363.79 226.669 363.102 227.66 362.233 228.479C360.501 230.152 358.186 231.088 355.778 231.088C353.369 231.088 351.055 230.152 349.323 228.479C348.453 227.661 347.764 226.67 347.3 225.569C346.837 224.469 346.609 223.283 346.633 222.089V54.3289C346.596 53.1229 346.817 51.9228 347.281 50.8089C347.745 49.695 348.441 48.6927 349.323 47.8689C351.076 46.236 353.382 45.3281 355.778 45.3281C358.173 45.3281 360.48 46.236 362.233 47.8689C363.112 48.6943 363.807 49.6968 364.271 50.8104C364.734 51.9239 364.957 53.1232 364.923 54.3289V222.089Z" fill="#EAEAEA"/>
<path d="M432.833 163.75C432.783 154.441 434.645 145.22 438.303 136.66C441.783 128.435 446.826 120.963 453.153 114.66C459.506 108.378 466.991 103.356 475.213 99.8598C483.684 96.2802 492.785 94.43 501.981 94.418C511.177 94.406 520.283 96.2324 528.763 99.7898C536.891 103.241 544.299 108.187 550.603 114.37C556.886 120.584 561.912 127.952 565.403 136.07C569.058 144.504 571.005 153.579 571.133 162.77V221.66C571.158 222.895 570.933 224.122 570.472 225.268C570.012 226.414 569.325 227.455 568.453 228.33C567.605 229.225 566.578 229.933 565.44 230.408C564.301 230.884 563.076 231.116 561.843 231.09C560.632 231.124 559.429 230.895 558.315 230.418C557.201 229.942 556.205 229.229 555.393 228.33C553.707 226.524 552.795 224.13 552.853 221.66L552.703 209.18C546.315 216.245 538.659 222.052 530.133 226.3C521.422 230.669 511.798 232.907 502.053 232.83C492.827 232.884 483.69 231.032 475.213 227.39C466.991 223.894 459.506 218.872 453.153 212.59C446.82 206.285 441.767 198.814 438.273 190.59C434.633 182.113 432.781 172.975 432.833 163.75ZM451.123 163.75C451.079 170.513 452.441 177.211 455.123 183.42C457.687 189.419 461.354 194.883 465.933 199.53C470.547 204.196 476.017 207.931 482.043 210.53C488.371 213.209 495.172 214.589 502.043 214.589C508.914 214.589 515.716 213.209 522.043 210.53C534.175 205.35 543.808 195.642 548.893 183.47C551.521 177.247 552.855 170.555 552.813 163.8C552.878 157.104 551.61 150.463 549.082 144.263C546.553 138.063 542.816 132.428 538.088 127.688C533.359 122.947 527.734 119.195 521.54 116.651C515.347 114.107 508.709 112.822 502.013 112.87C495.182 112.826 488.416 114.188 482.133 116.87C469.926 122.01 460.214 131.722 455.073 143.93C452.413 150.196 451.068 156.942 451.123 163.75Z" fill="#EAEAEA"/>
<path d="M718.572 222.092C718.601 223.301 718.384 224.502 717.935 225.625C717.486 226.747 716.814 227.767 715.96 228.622C715.106 229.478 714.087 230.151 712.965 230.601C711.843 231.051 710.641 231.269 709.432 231.242C708.245 231.267 707.064 231.047 705.965 230.597C704.866 230.146 703.871 229.474 703.042 228.622C702.185 227.769 701.511 226.75 701.062 225.627C700.613 224.504 700.399 223.301 700.432 222.092V160.712C700.246 145.232 696.786 133.355 690.052 125.082C683.319 116.809 673.912 112.669 661.832 112.662C656.108 112.625 650.441 113.812 645.212 116.142C640.078 118.44 635.445 121.722 631.572 125.802C627.572 130.037 624.398 134.982 622.212 140.382C619.859 146.148 618.581 152.296 618.442 158.522V221.792C618.468 223.019 618.243 224.238 617.781 225.375C617.318 226.512 616.628 227.542 615.752 228.402C614.906 229.252 613.9 229.926 612.792 230.387C611.685 230.847 610.497 231.084 609.297 231.084C608.098 231.084 606.91 230.847 605.802 230.387C604.695 229.926 603.689 229.252 602.842 228.402C601.967 227.542 601.277 226.512 600.814 225.375C600.352 224.238 600.126 223.019 600.152 221.792V103.532C600.137 102.322 600.374 101.123 600.85 100.01C601.325 98.8978 602.028 97.897 602.912 97.072C603.764 96.2083 604.782 95.5257 605.904 95.0651C607.026 94.6046 608.23 94.3756 609.442 94.392C610.635 94.3705 611.82 94.5977 612.92 95.0591C614.02 95.5205 615.012 96.2061 615.832 97.072C616.678 97.9189 617.345 98.9272 617.793 100.037C618.242 101.147 618.463 102.335 618.442 103.532V119.062C623.962 111.87 630.839 105.829 638.682 101.282C646.264 96.8409 654.896 94.5102 663.682 94.532C671.472 94.409 679.193 95.9963 686.302 99.182C692.988 102.244 698.892 106.781 703.572 112.452C708.574 118.63 712.312 125.732 714.572 133.352C717.239 142.227 718.587 151.445 718.572 160.712V222.092Z" fill="#EAEAEA"/>
<path d="M857.022 94.39C858.288 94.3548 859.546 94.6064 860.701 95.1259C861.856 95.6454 862.879 96.4194 863.692 97.39C864.821 98.4897 865.582 99.9111 865.872 101.46C866.164 102.96 866.064 104.51 865.582 105.96C865.348 107.062 864.85 108.091 864.132 108.96L863.262 109.96L766.302 213.24H859.762C862.214 213.182 864.59 214.095 866.372 215.78C867.241 216.581 867.93 217.559 868.392 218.646C868.854 219.734 869.079 220.908 869.052 222.09C869.076 223.283 868.849 224.468 868.388 225.568C867.926 226.669 867.24 227.66 866.372 228.48C865.501 229.334 864.467 230.005 863.331 230.454C862.196 230.902 860.983 231.118 859.762 231.09H747.452C745.74 231.128 744.053 230.674 742.592 229.78C741.237 228.966 740.112 227.82 739.322 226.45C738.373 224.964 737.94 223.207 738.092 221.45C738.244 219.663 738.942 217.966 740.092 216.59L740.232 216.3L740.812 215.72L837.752 112.39H748.652C747.456 112.41 746.267 112.189 745.157 111.741C744.048 111.293 743.039 110.626 742.192 109.78C741.344 108.947 740.671 107.953 740.211 106.857C739.751 105.761 739.514 104.584 739.514 103.395C739.514 102.206 739.751 101.029 740.211 99.933C740.671 98.8367 741.344 97.843 742.192 97.0099C743.039 96.1642 744.048 95.4973 745.157 95.0489C746.267 94.6006 747.456 94.3799 748.652 94.3999L857.022 94.39Z" fill="#EAEAEA"/>
<path d="M939.732 200.659L983.852 100.089C984.848 97.8372 986.665 96.0492 988.932 95.0893C990.031 94.5802 991.229 94.3223 992.44 94.3344C993.651 94.3465 994.844 94.6283 995.932 95.1593C997.063 95.6179 998.085 96.3063 998.936 97.1807C999.786 98.0552 1000.45 99.0967 1000.87 100.239C1001.74 102.602 1001.64 105.213 1000.58 107.499L947.862 226.009L947.422 227.169L925.802 275.929C925.324 277.067 924.622 278.097 923.737 278.957C922.852 279.818 921.804 280.492 920.653 280.939C919.503 281.386 918.274 281.597 917.04 281.559C915.807 281.521 914.593 281.236 913.472 280.719C912.412 280.294 911.465 279.627 910.708 278.771C909.951 277.915 909.405 276.894 909.112 275.789C908.545 273.405 908.802 270.899 909.842 268.679L930.012 222.529L879.222 107.299C878.696 106.194 878.405 104.991 878.368 103.767C878.33 102.544 878.546 101.325 879.002 100.189C879.437 99.0634 880.09 98.0347 880.924 97.1627C881.758 96.2908 882.757 95.5929 883.862 95.1093C884.95 94.5813 886.139 94.2954 887.347 94.2712C888.555 94.247 889.755 94.4852 890.862 94.9693C892.003 95.4388 893.038 96.1294 893.91 97.0013C894.782 97.8732 895.473 98.9091 895.942 100.049L939.732 200.659Z" fill="#EAEAEA"/>
</svg>
