<svg width="1080" height="1080" viewBox="0 0 1080 1080" fill="none" xmlns="http://www.w3.org/2000/svg">
<rect width="1080" height="1080" rx="200" fill="#EAEAEA"/>
<path d="M714.5 839.956C689.312 856.693 657.166 849.528 642.723 824.013L493.005 559.372C478.561 533.856 487.133 499.591 512.468 483.031C537.685 466.324 569.831 473.459 584.274 498.974L646.715 609.288L734.11 763.615C748.436 789.013 739.717 823.249 714.5 839.956Z" fill="#0D0A0B"/>
<path d="M944.995 791.062C945.122 800.757 942.859 810.333 938.406 818.947C933.953 827.561 927.448 834.947 919.463 840.453C894.253 857.171 861.326 848.607 845.889 821.36L604.096 394.64L587.838 365.691L567.911 330.496C565.241 325.381 561.22 321.095 556.284 318.105C551.348 315.114 545.686 313.533 539.914 313.533C534.141 313.533 528.479 315.114 523.543 318.105C518.607 321.095 514.586 325.381 511.916 330.496L492.019 365.691L475.496 394.875L233.762 821.36C218.501 848.255 186.19 856.937 161.098 841.04C135.184 824.645 127.378 787.542 143.079 759.855L437.403 240.394L443.537 229.572C452.888 212.59 466.284 198.174 482.539 187.601C499.597 176.773 519.383 171.015 539.591 171C556.239 171.141 572.637 175.064 587.544 182.473C602.451 189.881 615.478 200.581 625.637 213.763C629.38 218.529 632.746 223.579 635.703 228.868L639.695 235.907L937.071 760.852C942.277 770.07 945.006 780.477 944.995 791.062Z" fill="#0D0A0B"/>
<path d="M436.5 851C483.168 851 521 813.168 521 766.5C521 719.832 483.168 682 436.5 682C389.832 682 352 719.832 352 766.5C352 813.168 389.832 851 436.5 851Z" fill="#0D0A0B"/>
</svg>
