<svg width="613" height="162" viewBox="0 0 613 162" fill="none" xmlns="http://www.w3.org/2000/svg">
<g clip-path="url(#clip0_4709_630)">
<path d="M0.976124 1.19886C-0.623876 2.66553 -0.0905421 100.266 1.37612 100.266C2.17612 100.266 12.5761 99.0655 24.4428 97.5989C36.3095 96.1322 55.1095 94.1322 66.1761 93.0655C88.4428 91.0655 94.8428 88.7989 100.176 81.3322C102.576 78.1322 103.509 74.6655 103.776 68.1322C104.443 57.1989 102.309 50.3989 97.2428 46.6655C93.3761 43.8655 93.3761 43.7322 95.9095 41.0655C100.043 36.3989 101.376 32.7989 101.376 25.5989C101.376 16.9322 97.6428 9.46553 91.3761 5.59886C87.9095 3.46553 83.2428 2.39886 73.6428 1.46553C58.3095 0.132201 2.17612 -0.134466 0.976124 1.19886ZM86.0428 7.19886C93.6428 11.3322 96.4428 15.5989 96.9761 23.9989C97.6428 33.0655 94.4428 39.3322 87.9095 42.1322L83.9095 43.8655L89.2428 45.8655C102.309 51.0655 104.709 70.5322 93.5095 81.7322C88.1761 87.1989 88.5761 87.0655 61.3761 89.5989C52.9761 90.3989 37.9095 91.9989 28.0428 93.0655C18.1761 94.2655 8.97612 95.1989 7.64279 95.3322C5.50946 95.5989 5.37612 92.6655 5.37612 50.5322C5.37612 25.8655 5.37612 5.19886 5.37612 4.79886C5.37612 4.39886 22.5761 4.26553 43.7761 4.5322C75.9095 4.9322 82.7095 5.3322 86.0428 7.19886Z" fill="white"/>
<path d="M26.709 30.2662V38.9329H49.109C69.2423 38.9329 71.909 38.6662 73.7757 36.5329C76.1757 33.9996 76.709 28.6662 74.9757 26.1329C72.5757 22.3996 67.509 21.5996 47.509 21.5996H26.709V30.2662ZM69.909 27.3329C71.2423 28.2662 72.1757 30.2662 71.7757 31.7329C71.3757 34.1329 69.909 34.2662 50.9757 34.6662L30.709 35.0662V30.2662V25.5996H49.109C62.1757 25.5996 68.1757 26.1329 69.909 27.3329Z" fill="white"/>
<path d="M26.709 62.5316V72.2649H51.3757C74.309 72.2649 76.1757 72.1316 78.709 69.5983C82.0423 66.2649 82.1757 58.7983 78.9757 55.8649C77.109 54.1316 72.309 53.7316 51.6423 53.3316L26.709 52.9316V62.5316ZM76.5757 60.5316C77.6423 62.2649 77.6423 63.5983 76.5757 65.1983C75.2423 67.3316 72.309 67.5983 52.8423 67.9983L30.709 68.2649V62.9316V57.5983L52.8423 57.8649C72.309 58.2649 75.2423 58.5316 76.5757 60.5316Z" fill="white"/>
<path d="M105.377 46.3989V92.6656L114.444 91.7323C119.377 91.3323 132.977 90.6656 144.71 90.2656C156.444 89.8656 170.977 89.1989 177.11 88.7989L188.044 87.9989V75.9989V63.9989L161.377 64.5323L134.71 64.9323V60.5323V56.2656H158.71H182.71V44.9323V33.4656L159.11 33.5989L135.377 33.8656V30.2656V26.6656L161.11 26.9323L186.71 27.0656V13.7323V0.398958L146.044 0.265625H105.377V46.3989ZM182.71 13.5989V23.0656L157.11 22.9323L131.377 22.6656L130.977 30.1323L130.577 37.5989H154.71H178.71V44.9323V52.2656H154.71H130.71V60.2656V68.2656H157.377H184.044V76.6656V85.1989L167.777 85.3323C149.244 85.5989 126.71 86.6656 116.444 87.7323L109.377 88.3989V46.3989V4.26562H146.044H182.71V13.5989Z" fill="white"/>
<path d="M190.709 0.532292C190.176 16.9323 190.042 61.199 190.309 72.5323L190.842 88.2656H232.176H273.376V76.2656V64.2656H248.042H222.709V32.2656V0.265625H206.709C197.909 0.265625 190.709 0.398959 190.709 0.532292ZM218.709 36.2656V68.399L244.042 67.999L269.376 67.599V75.8656V84.2656H231.776H194.042L194.442 44.2656L194.842 4.26562H206.709H218.709V36.2656Z" fill="white"/>
<path d="M246.709 13.5985V26.9318H262.042H277.376V57.5985V88.2651H292.442H307.376L306.976 57.5985L306.576 26.9318H322.709H338.842L338.442 13.8651L338.042 0.93177L292.442 0.665104L246.709 0.398438V13.5985ZM334.709 13.5985V22.9318H318.709H302.709V53.5985V84.2651H292.042H281.376V53.5985V22.9318H266.042H250.709V13.5985V4.2651H292.709H334.709V13.5985Z" fill="white"/>
<path d="M341.377 44.1333V88.2667H356.844H372.177L371.91 75.2L371.644 62.2667L376.044 61.8667C380.044 61.4667 381.644 62.6667 393.91 74.6667L407.377 88L458.044 88.8L508.71 89.6L522.31 76L536.044 62.2667L551.11 77.2L566.044 92.1333L582.71 94.2667C591.91 95.4667 602.31 96.8 605.777 97.2L612.177 98L585.377 71.6C570.71 57.0667 558.71 44.8 558.71 44.4C558.844 44 568.044 34 579.377 22.2667C590.71 10.6667 600.044 0.933333 600.044 0.933333C600.044 0.933333 590.31 0.666667 578.31 0.533333L556.577 0.133333L546.044 11.0667L535.51 22.1333L525.51 11.3333L515.377 0.4H477.11H438.71V41.3333V82.2667L428.044 71.6L417.377 61.0667L421.11 59.2C431.51 53.8667 436.044 45.6 436.044 32C435.91 16.9333 430.977 8.40001 419.377 3.46667C414.844 1.46667 408.177 1.06667 377.777 0.533333L341.377 0V44.1333ZM511.377 43.6C511.377 44.2667 501.777 54.2667 490.177 65.6C475.244 80.2667 469.244 85.3333 469.91 82.9333C470.31 81.0667 470.71 62.2667 470.71 41.0667V2.40001L491.11 22.4C502.177 33.3333 511.377 42.8 511.377 43.6ZM420.044 8.26666C430.844 14.2667 435.51 29.2 430.844 43.2C428.844 49.3333 421.51 55.8667 415.377 57.0667C412.844 57.4667 410.71 58.2667 410.71 58.6667C410.71 59.2 416.444 65.2 423.377 72.2667L436.044 84.9333L422.577 84.5333L409.11 84L396.444 70.8L383.777 57.6H374.977H366.31L366.977 70.9333L367.644 84.2667H356.444H345.377V44.1333V4.00001L379.777 4.53334C413.377 4.93334 414.177 5.06666 420.044 8.26666ZM466.444 44.4L466.044 84.5333L454.31 84.6667L442.71 84.9333V44.5333V4.26667H454.71H466.71L466.444 44.4ZM524.444 16.2667L535.777 28.4L546.844 16.2667L558.044 4.26667H574.71H591.377L571.644 24L552.044 43.6L576.444 68C589.91 81.3333 599.91 92.2667 598.844 92.1333C597.644 92.1333 590.577 91.3333 583.11 90.5333L569.644 88.9333L552.844 72.8L536.177 56.5333L521.777 71.0667L507.51 85.6H492.177H476.71L497.777 64.5333L518.844 43.4667L499.377 24.4C488.71 13.8667 480.044 5.06667 480.044 4.80001C480.044 4.53334 487.51 4.26667 496.577 4.26667H513.11L524.444 16.2667Z" fill="white"/>
<path d="M367.242 22.7982C366.976 23.0648 366.709 28.1315 366.709 33.8648V44.2648H386.042C404.976 44.2648 405.642 44.1315 408.709 40.9315C412.842 36.9315 412.976 31.1982 409.376 26.5315C406.709 23.0648 406.309 23.0648 387.242 22.6648C376.576 22.3982 367.509 22.5315 367.242 22.7982ZM406.976 30.2648C408.176 32.7982 408.042 34.1315 406.176 36.9315C404.042 40.2648 403.642 40.2648 387.642 40.2648H371.376V33.5982V26.9315H388.442C405.242 26.9315 405.509 26.9315 406.976 30.2648Z" fill="white"/>
<path d="M366.71 99.0651C261.243 105.998 154.31 121.198 72.0432 141.065C31.1099 150.932 -12.0901 163.465 3.37652 160.932C5.64319 160.532 32.3099 156.665 62.7099 152.265C93.1099 147.865 125.91 143.065 135.377 141.598C219.377 128.798 341.777 115.065 413.91 110.265C459.91 107.198 527.243 105.198 569.91 105.732C591.51 105.998 608.843 105.998 608.577 105.732C608.31 105.332 591.377 103.732 570.977 101.865C538.71 99.0651 524.71 98.6651 459.377 98.2651C418.31 97.9985 376.577 98.3985 366.71 99.0651ZM538.043 101.598C546.977 102.265 540.577 102.532 513.377 102.798C430.71 103.198 349.11 109.465 226.043 125.065C162.177 133.065 78.5765 145.598 46.7099 151.732C44.1765 152.265 42.3099 152.265 42.7099 151.865C43.7765 150.665 86.9765 141.065 121.377 134.398C206.443 117.732 322.71 104.132 413.377 100.265C442.043 99.0651 517.51 99.8651 538.043 101.598Z" fill="white"/>
<path d="M13.1257 28.3535C13.133 28.3608 13.1403 28.3681 13.1477 27.233C13.155 26.098 13.1623 23.8204 13.1518 22.6083C13.1412 21.3962 13.1127 21.3186 12.9489 21.1483C12.5109 20.6929 12.0257 20.3863 11.6719 20.2691C11.4752 20.204 11.2308 20.1699 11.069 20.2466C10.7403 20.4024 10.7584 20.959 10.8311 21.7389C10.8824 22.2899 11.0349 23.1484 11.2034 21.8804C11.3719 20.6124 11.57 17.1899 11.629 14.9084C11.6879 12.6269 11.6016 11.5901 11.5288 10.9474C11.4308 10.0833 11.2773 9.72341 11.1203 9.50892C11.0497 9.41237 10.9037 9.43095 10.8035 9.44795C10.6235 9.47851 10.4734 9.58578 10.4073 9.62205C10.2837 9.68993 10.9321 9.43865 12.5858 9.33481C13.9498 9.24917 16.3865 9.23898 17.9186 9.25357C19.4508 9.26815 20.0063 9.34421 20.752 9.45039C21.4976 9.55656 22.4165 9.69056 23.0397 9.79645C23.6629 9.90235 23.9626 9.97609 24.3672 10.0613" stroke="white" stroke-width="14" stroke-linecap="round"/>
<path d="M35.6618 9.39648C35.6652 9.39648 35.6686 9.39648 34.4204 9.40776C33.1722 9.41903 30.6724 9.44157 28.0371 9.47405" stroke="white" stroke-width="14" stroke-linecap="round"/>
<path d="M63.4655 9.39062C63.4688 9.39389 63.472 9.39716 61.2681 9.40526C59.0642 9.41337 54.6529 9.42622 51.9056 9.51053C49.1583 9.59484 48.2085 9.75022 46.6278 9.83047C45.047 9.91073 42.8641 9.91115 41.6364 9.88245C40.4088 9.85375 40.2026 9.79592 39.9902 9.73633" stroke="white" stroke-width="14" stroke-linecap="round"/>
<path d="M66.6699 11.581C66.6699 11.5662 68.1405 11.5513 70.6343 11.5053C71.658 11.4864 72.1888 11.397 73.2529 11.3624C74.317 11.3277 75.8977 11.3302 76.8531 11.3523C77.8085 11.3744 78.0906 11.4161 79.1125 11.703C80.1344 11.99 81.8876 12.5209 82.9434 12.8612C84.3153 13.3033 84.9396 13.7264 85.9059 14.6853C86.5847 15.3589 87.5138 16.5393 88.2952 17.4091C89.0767 18.279 89.6486 18.835 90.0877 19.3262C90.8597 20.1899 91.1931 20.8193 91.3376 21.1749C91.4873 21.5432 91.5287 22.2578 91.5441 23.139C91.5551 23.7698 91.1807 24.7071 90.7276 26.2397C90.4804 27.0756 90.3446 28.0696 90.1371 28.959C89.748 30.6275 89.4134 31.494 89.3485 31.7618C89.1243 32.6873 88.8518 33.8315 88.2275 34.9602C87.8626 35.6199 87.3622 36.0202 86.8465 36.412C85.2751 37.6057 84.76 37.6209 84.5089 37.6366C83.3395 37.7101 84.178 34.285 83.9496 33.6529C83.5949 32.6712 82.4843 32.5308 82.3032 32.3327C81.9687 31.967 82.0309 31.1826 81.7771 28.9842C81.6109 27.5447 81.5749 26.6828 81.1691 26.1476C80.8258 25.6948 80.136 24.9274 79.5715 24.2403C78.5518 22.9989 77.8645 22.1569 77.4345 21.766C77.1929 21.5464 76.6553 21.1284 75.8148 20.4617C75.1249 19.9144 74.4189 19.259 73.809 18.5168C73.4261 18.1094 73.0966 17.9 72.6175 17.7092C72.3318 17.6076 71.96 17.4964 71.5769 17.3817" stroke="white" stroke-width="14" stroke-linecap="round"/>
<path d="M69.2972 15.5586C69.304 15.5586 69.0385 15.5586 68.5934 15.598C68.3165 15.6226 68.1448 16.1167 67.9692 16.6002C67.9314 16.7041 67.721 16.6742 67.3764 16.6422C67.0318 16.6102 66.5082 16.5397 63.4401 16.5451C60.3721 16.5505 54.7753 16.6339 51.1703 16.6666C47.5652 16.6994 46.1214 16.6788 44.5215 16.6813" stroke="white" stroke-width="14" stroke-linecap="round"/>
<path d="M44.5644 15.9082C44.5644 15.9116 44.5644 15.9149 42.7016 15.9109C40.8388 15.9068 37.1132 15.8952 33.5735 16.1201C30.0337 16.3449 26.7927 16.8065 24.9599 17.0444C23.1271 17.2823 22.8008 17.2825 22.5096 18.1871C22.2184 19.0917 21.9722 20.9008 21.8471 22.5054C21.7219 24.1101 21.7253 25.4556 21.8425 27.1009C21.9597 28.7463 22.1906 30.6506 22.2983 32.3796C22.4059 34.1086 22.3834 35.6045 22.3602 37.1458" stroke="white" stroke-width="14" stroke-linecap="round"/>
<path d="M11.7314 26.0664C11.7017 26.3174 11.6781 26.9355 11.6238 27.9258C11.5742 28.8301 11.4958 30.5511 11.6823 32.6403C11.8688 34.7296 12.3267 37.1353 12.5789 40.8342C12.831 44.5332 12.8634 49.4526 12.8755 52.0326C12.8876 54.6125 12.8783 54.704 12.8253 54.6052C12.7724 54.5064 12.676 54.2146 12.4809 51.9036C12.2858 49.5926 11.995 45.2712 11.8579 42.9108C11.7053 40.2839 11.8007 39.883 11.8414 39.9194C11.96 40.0256 11.8502 40.5212 11.6743 42.1567C11.4984 43.7921 11.1504 46.6064 10.9731 48.7092C10.7959 50.8119 10.7998 52.118 10.9185 53.5661C11.0372 55.0143 11.2706 56.565 11.5237 59.0025C11.7768 61.4399 12.0425 64.7172 12.2005 66.4855C12.3585 68.2538 12.4009 68.4138 12.516 68.6619" stroke="white" stroke-width="14" stroke-linecap="round"/>
<path d="M9.7455 61.2832C9.7455 61.2863 9.7455 61.2893 9.74871 63.8859C9.75192 66.4825 9.75835 71.6725 9.81296 75.189C9.86757 78.7056 9.97017 80.3913 9.94576 81.7334C9.92135 83.0754 9.76681 84.0226 9.68262 84.6577C9.55987 85.5838 9.55223 86.3459 9.57393 87.2285C9.59436 88.0592 9.92562 88.5252 10.0458 88.6809C10.1761 88.8497 10.4312 88.8536 10.6333 88.858C11.37 88.874 12.3196 87.9676 14.0242 87.61C15.7924 87.2391 17.0051 87.4091 17.1107 87.4903C17.239 87.5889 16.7687 87.8894 15.9882 88.2191C14.7773 88.7306 13.524 89.1332 12.7573 89.4881C12.1491 89.7696 11.7527 89.9898 11.4394 90.1637C11.2913 90.2458 11.1757 90.3859 11.1488 90.4791C11.1356 90.5248 11.321 90.5089 13.9104 90.0582C16.4997 89.6074 21.5378 88.7073 25.4383 88.2059C29.3387 87.7045 31.9489 87.6292 34.6381 87.5516" stroke="white" stroke-width="14" stroke-linecap="round"/>
<path d="M20.5088 84.1155C20.4188 84.0311 20.3735 83.6636 20.1889 80.8343C20.0986 79.449 20.1849 77.3609 20.2657 75.8001C20.3465 74.2393 20.4834 73.2662 20.8324 70.8214C21.1814 68.3766 21.7384 64.4896 22.0317 62.1336C22.325 59.7777 22.3377 59.0706 22.4241 58.329C22.5105 57.5873 22.6703 56.8324 23.0367 55.672C23.4031 54.5116 23.9713 52.9684 24.2746 52.1337C24.5778 51.2989 24.5989 51.2193 24.6579 51.0957" stroke="white" stroke-width="14" stroke-linecap="round"/>
<path d="M18.627 45.9105C18.7109 45.8273 19.4799 45.5905 21.5026 45.4139C22.9453 45.2879 25.2496 45.3375 26.8387 45.2614C28.4279 45.1854 29.2363 45.046 30.1601 44.973C31.0839 44.8999 32.0987 44.8974 32.7339 44.9308C33.3692 44.9642 33.5942 45.0336 33.826 45.1051" stroke="white" stroke-width="14" stroke-linecap="round"/>
<path d="M35.875 45.4375C35.875 45.434 35.875 45.4306 39.0227 45.3725C42.1705 45.3145 48.4659 45.202 53.0486 44.9785C57.6312 44.755 60.3102 44.4239 61.7315 44.2426C63.1529 44.0613 63.2354 44.0398 63.3476 43.9994C63.4598 43.959 63.5993 43.9003 63.743 43.8398" stroke="white" stroke-width="14" stroke-linecap="round"/>
<path d="M62.0234 44.0477C62.0363 44.0477 62.0491 44.0477 63.1536 44.045C64.258 44.0422 66.4536 44.0367 68.0723 43.9652C69.691 43.8937 70.6662 43.7564 71.2517 43.6612C72.0072 43.5383 72.63 43.3705 73.5171 43.1361C74.952 42.5261 75.4951 42.1974 76.0202 41.3615C76.3235 40.8889 76.851 40.1038 77.3945 39.2949" stroke="white" stroke-width="14" stroke-linecap="round"/>
<path d="M28.0137 45.8268C28.0137 45.8234 28.0137 45.8199 29.0974 45.8187C30.1812 45.8175 32.3486 45.8186 33.8331 45.8442C36.0544 45.8824 37.0711 46.0059 37.6867 46.0602C39.2226 46.1957 40.3361 46.532 40.6969 46.8617C40.8153 46.9699 40.1406 47.1156 39.3397 47.2916C38.3264 47.5143 36.8819 47.511 35.5577 47.4983C34.3824 47.4871 32.8609 47.5265 32.237 47.6552C32.0496 47.6938 32.1319 47.7114 35.5165 47.7187C38.901 47.726 45.5872 47.7309 50.266 47.7616C54.9448 47.7922 57.4137 47.8483 58.8371 47.8999C60.2604 47.9515 60.5635 47.9968 60.9026 48.0435" stroke="white" stroke-width="14" stroke-linecap="round"/>
<path d="M65.252 47.0605C65.2768 47.0605 66.4413 47.0653 68.2632 47.0973C68.9339 47.1091 69.0874 47.1744 70.7971 47.4489C72.5069 47.7234 75.7678 48.2213 77.6406 48.5422C79.9105 48.9312 80.5678 49.2933 81.2183 49.7386C82.1107 50.3494 82.6428 50.8256 82.751 50.7047C83.441 49.9332 82.4454 48.8823 82.1549 48.1274C82.056 47.8704 82.176 47.8308 82.3504 47.8402C83.3648 47.8952 84.0992 48.5891 84.802 49.3726C85.3501 50.0561 85.9055 50.6676 86.1879 51.1655C86.223 51.2783 86.2373 51.3951 86.2374 51.6725" stroke="white" stroke-width="14" stroke-linecap="round"/>
<path d="M83.3359 51.9826C83.4761 52.1546 83.8348 52.6267 84.1101 53.1186C84.3621 53.5689 84.6581 54.039 84.8386 54.5481C85.0485 55.14 85.2929 56.0954 85.7663 57.2156C85.9898 57.7445 86.2687 58.1532 86.4174 58.3312C86.5662 58.5092 86.5991 58.4339 86.6336 58.301C86.7163 57.9829 86.8714 57.2722 87.0739 56.194C87.2893 55.0469 87.0779 53.9168 86.9615 53.0525C86.8813 52.4562 86.9571 52.1302 87.0489 51.9647C87.2449 51.6111 87.7721 51.4851 88.6923 51.3701C90.3998 51.1565 90.9597 51.5816 91.3537 51.9176C91.5471 52.0826 91.9737 53.1877 92.6396 54.7966C93.0291 55.7379 93.7262 56.7725 94.5991 58.1198C95.2222 59.0815 95.561 60.0328 95.8293 61.1725C96.1419 62.5004 95.9627 63.535 95.838 64.4449C95.7479 65.1026 95.5824 66.1553 95.4253 66.9445C95.0204 68.978 94.2964 69.6921 93.6853 70.1431C92.8918 70.7286 90.7528 70.7638 89.8087 70.7329C89.5523 70.7245 89.1332 69.9572 88.5217 69.007C88.0805 68.3214 87.8209 67.5919 87.5996 66.4311C87.4814 64.6178 87.4865 63.2711 87.2283 63.2241C86.9317 63.4249 86.2988 64.082 85.5723 64.7916" stroke="white" stroke-width="14" stroke-linecap="round"/>
<path d="M89.2676 71.4141C89.2744 71.4141 89.2812 72.6399 89.383 74.5822C89.4209 75.3044 89.6749 75.4686 89.8232 75.5777C90.0561 75.7489 90.3266 75.7821 90.62 75.7681C91.3346 75.734 92.3344 74.7181 92.8258 74.4417C92.8631 74.4207 92.8319 74.5564 92.2198 75.25C91.6076 75.9436 90.4151 77.2345 89.7257 77.9669C88.5863 79.1773 87.9459 79.706 87.1447 80.4589C86.8459 80.7397 86.3355 80.9506 83.2725 81.6111C80.5801 82.1916 75.5285 83.0311 72.6509 83.5264C69.7732 84.0216 69.21 84.086 68.8705 84.1539C68.5309 84.2218 68.432 84.2913 68.3301 84.363" stroke="white" stroke-width="14" stroke-linecap="round"/>
<path d="M71.3676 83.2299C71.3548 83.2299 71.3421 83.2299 69.3918 83.2877C67.4416 83.3456 63.5542 83.4614 61.0132 83.6059C58.4723 83.7505 57.3956 83.9203 56.7253 84.045C56.0549 84.1697 55.8235 84.2442 54.991 84.5963C54.1585 84.9484 52.732 85.576 51.9121 85.926C51.0922 86.276 50.9222 86.3295 49.9033 86.524C48.8845 86.7186 47.022 87.0525 45.6205 87.2298C44.2191 87.4071 43.3352 87.4176 42.7558 87.4038C41.9269 87.3841 40.9004 87.0165 39.402 86.374C38.6625 86.0569 38.0199 85.6375 37.3364 85.1513C35.9233 84.1461 35.1038 83.4232 34.8265 83.2736C34.2055 82.9387 32.9056 82.8072 31.4605 82.2267C30.3807 81.793 30.1719 80.3978 29.841 78.9693C29.5614 77.7625 29.4217 77.1633 29.356 77.0644C29.328 77.0221 29.5304 76.9921 30.3243 76.9676C31.1182 76.9431 32.5537 76.9242 33.5061 76.9435C34.4586 76.9628 34.8844 77.0209 38.6339 77.2835C42.3834 77.5461 49.4435 78.0114 56.7176 78.4908" stroke="white" stroke-width="14" stroke-linecap="round"/>
<path d="M83.7406 74.4515C83.7542 74.3215 83.7035 73.9905 83.6072 73.745C83.5405 73.5751 83.55 73.2791 82.7748 73.5582C81.9996 73.8373 80.4681 74.6919 77.605 75.5173C74.7419 76.3427 70.5937 77.1132 67.9973 77.5161C65.4009 77.9189 64.482 77.9308 63.8671 77.9162C62.4377 77.747 61.6885 77.4841 61.2412 77.2975C61.0568 77.2312 60.9586 77.2226 60.8574 77.2137" stroke="white" stroke-width="14" stroke-linecap="round"/>
<path d="M119.088 15.6741C118.618 15.3894 117.729 14.5956 116.814 13.2322C115.37 11.0801 114.797 10.4624 114.177 10.2156C114.046 10.1633 113.964 10.0336 113.886 9.91904C113.808 9.80448 113.747 9.6904 114.046 15.3225C114.345 20.9547 115.007 32.3365 115.509 39.0541C116.011 45.7716 116.334 47.4801 116.65 49.1407C116.967 50.8013 117.268 52.3622 117.571 50.7345C117.874 49.1067 118.171 44.2429 118.317 41.6689C118.464 39.0949 118.45 38.9581 118.395 38.9839C118.34 39.0096 118.245 39.2021 117.941 40.6541C117.637 42.1061 117.128 44.8117 116.862 46.086C116.596 47.3604 116.588 47.1214 117.317 43.1756C118.047 39.2298 119.514 31.5844 120.283 27.476C121.114 23.0347 121.189 22.3525 121.424 21.621C121.716 20.7123 122.131 20.0815 122.38 19.7946C122.494 19.6634 122.624 19.6005 122.74 19.6141C122.989 19.6434 123.196 20.9201 123.556 23.4186C123.76 24.8368 124.142 26.5392 124.428 28.2154C124.713 29.8915 124.924 31.4844 125.142 32.6901C125.36 33.8958 125.578 34.6659 125.745 32.4829C125.911 30.2999 126.02 25.1403 126.095 22.423C126.171 19.7057 126.211 19.5869 126.321 19.3912C126.431 19.1956 126.611 18.9266 126.796 18.6494" stroke="white" stroke-width="14" stroke-linecap="round"/>
<path d="M124.524 10.6109C123.744 10.6109 121.91 10.5064 121.522 10.2284C121.447 10.1751 121.564 10.0326 123.537 10.0797C125.51 10.1269 129.388 10.3318 132.321 10.6033C135.255 10.8747 137.125 11.2065 138.792 11.4042C140.459 11.6019 141.866 11.6554 142.345 11.6798C142.335 11.6977 141.475 11.623 140.832 11.4864C140.544 11.4179 140.335 11.3511 139.981 11.2745" stroke="white" stroke-width="14" stroke-linecap="round"/>
<path d="M114.605 9.18683C114.557 9.10257 114.371 8.90147 114.051 8.68155C113.973 8.62797 113.905 8.60033 113.915 8.57192C113.925 8.54352 114.012 8.51924 114.882 8.52678C115.752 8.53433 117.403 8.57444 121.131 8.99065C124.86 9.40686 130.617 10.1979 134.569 10.6048C138.521 11.0116 140.493 11.0102 141.653 10.9839C142.813 10.9577 143.1 10.9066 143.45 10.809C143.8 10.7113 144.204 10.5686 144.657 10.3935" stroke="white" stroke-width="14" stroke-linecap="round"/>
<path d="M145.721 10.4648C145.716 10.4648 145.71 10.4648 147.214 10.4681C148.719 10.4714 151.734 10.4779 154.374 10.5958C157.013 10.7137 159.184 10.9426 161.422 11.1785" stroke="white" stroke-width="14" stroke-linecap="round"/>
<path d="M133.295 12.9492C133.29 12.9545 133.284 13.1418 133.313 13.8106C133.367 15.0759 133.524 16.0186 133.712 16.4842C134.052 17.3222 134.458 17.9844 134.694 18.2827C135.065 18.7518 135.633 18.597 137.629 18.3357C139.508 18.0899 143.14 17.5947 146.155 17.3372C149.171 17.0796 151.457 17.0696 153.329 17.1904C155.201 17.3112 156.587 17.5631 157.729 17.696C158.871 17.829 159.726 17.8353 160.606 17.8419" stroke="white" stroke-width="14" stroke-linecap="round"/>
<path d="M162.383 16.1015C162.365 16.1015 162.853 16.114 163.96 16.1759C164.571 16.2101 165.277 16.3112 166.021 16.3653C166.765 16.4194 167.526 16.4392 168.045 16.4773C168.565 16.5154 168.82 16.5712 169.441 16.7547C170.061 16.9382 171.04 17.2479 171.805 17.4396C172.569 17.6313 173.089 17.6958 173.997 17.7349C174.905 17.7739 176.184 17.7856 176.889 17.8025C177.684 17.8215 177.854 17.9103 177.997 18.0073C178.066 18.0538 178.116 18.1093 178.171 18.1696C178.225 18.2298 178.279 18.2969 178.238 17.737C178.196 17.1771 178.057 15.9882 177.988 14.894C177.919 13.7999 177.923 12.8365 177.971 12.1756C178.081 10.6715 178.46 10.2715 178.426 9.98384C178.417 9.90742 178.452 9.82716 178.502 9.77125C178.551 9.71535 178.623 9.68568 178.692 9.66211C178.762 9.63854 178.828 9.62197 178.242 9.91081C177.657 10.1997 176.418 10.7944 175.544 11.1611C174.224 11.7148 173.444 11.7755 172.989 11.7728C172.803 11.7717 172.707 11.7521 172.109 11.5147C171.51 11.2773 170.411 10.818 169.813 10.5744C169.156 10.3064 168.745 10.2708 168.139 10.2037C167.098 10.0885 165.76 9.9651 165.367 9.89959C165.298 9.88805 165.666 9.82694 166.341 9.79347C167.016 9.76001 168.126 9.74261 169.296 9.77313C170.465 9.80365 171.66 9.88263 172.358 9.91764C173.057 9.95265 173.223 9.94129 173.453 9.9054C173.684 9.86951 173.974 9.80943 174.332 9.74401" stroke="white" stroke-width="14" stroke-linecap="round"/>
<path d="M129.825 42.7634C129.395 42.7634 128.389 42.7331 127.96 42.5011C127.627 42.3209 127.369 42.2594 127.335 42.1761C127.319 42.1362 127.441 42.104 127.747 42.0471C128.054 41.9902 128.576 41.9103 132.121 41.9709C135.666 42.0315 142.218 42.235 148.969 42.4447" stroke="white" stroke-width="14" stroke-linecap="round"/>
<path d="M150.319 42.9407C150.316 42.9407 150.313 42.9407 151.898 42.9344C153.484 42.9281 156.657 42.9156 158.718 42.8818C160.779 42.848 161.632 42.7934 162.125 42.7674C162.619 42.7414 162.728 42.7458 162.995 42.7995" stroke="white" stroke-width="14" stroke-linecap="round"/>
<path d="M165.121 41.7093C165.118 41.7093 165.116 41.7093 166.033 41.7075C166.95 41.7057 168.787 41.702 170.184 41.6882C171.58 41.6743 172.48 41.6502 172.959 41.669C173.438 41.6878 173.468 41.7501 173.48 42.0609C173.491 42.3716 173.483 42.9289 173.349 43.6187C173.053 45.1362 172.677 46.0087 172.693 46.1548C172.746 46.6513 173.378 46.9212 173.518 47.1568C173.593 47.2812 173.678 47.4333 173.727 47.5694C173.745 47.621 173.645 47.6477 171.287 47.5785C168.93 47.5092 164.29 47.3459 161.324 47.2746C158.358 47.2032 157.205 47.2288 156.561 47.2653C155.918 47.3019 155.82 47.3485 155.719 47.3966" stroke="white" stroke-width="14" stroke-linecap="round"/>
<path d="M157.134 46.4648C157.137 46.4648 157.139 46.4648 155.222 46.5135C153.305 46.5622 149.468 46.6596 147.193 46.7754C144.917 46.8912 144.32 47.0225 141.704 47.2165C139.088 47.4106 134.47 47.6635 129.713 47.9241" stroke="white" stroke-width="14" stroke-linecap="round"/>
<path d="M117.549 43.0022C117.549 42.9967 117.532 43.0874 117.288 43.723C117.077 44.272 116.621 45.253 116.288 46.1328C115.956 47.0126 115.744 47.7544 115.618 48.2998C115.418 49.1634 115.436 50.006 115.574 51.1213C115.652 51.7459 115.929 52.4595 116.227 54.376C116.526 56.2925 116.884 59.3825 117.073 62.8606C117.262 66.3387 117.27 70.1113 117.284 72.1502C117.298 74.1891 117.317 74.3801 117.327 74.3614C117.337 74.3428 117.337 74.1089 117.177 72.3936C117.017 70.6784 116.696 67.4889 116.531 64.5831C116.367 61.6773 116.367 59.1519 116.378 57.7666C116.39 56.2123 116.502 55.8246 116.631 55.477C116.682 55.34 116.739 55.298 116.779 55.3104C116.818 55.3229 116.848 55.3949 116.863 55.4825C116.878 55.57 116.878 55.671 116.519 58.0398C116.16 60.4087 115.443 65.0425 115.058 68.0904C114.673 71.1384 114.642 72.4601 114.582 73.5119C114.522 74.5637 114.434 75.3055 114.436 72.5478C114.437 69.7902 114.532 63.5107 114.801 59.162C115.071 54.8134 115.513 52.5859 115.815 51.2049C116.221 49.3467 116.482 48.8467 116.622 48.8026C116.985 48.688 117.568 49.045 118.383 49.5156C119.677 50.2633 120.483 51.0485 120.744 51.3165C121.194 51.7801 121.397 52.6324 121.859 54.2807C122.1 55.139 122.681 56.5229 123.142 57.9648C123.603 59.4067 123.978 60.8485 124.243 61.9442C124.676 63.74 124.821 64.5389 124.868 64.6065C124.88 64.6249 124.909 64.547 125.101 63.7779C125.294 63.0089 125.659 61.5348 125.865 60.6167C126.071 59.6986 126.107 59.3812 126.122 58.6744C126.137 57.9675 126.131 56.8809 126.143 56.255C126.158 55.4958 126.273 55.2 126.367 54.9896C126.393 54.9317 126.429 55.0057 126.387 57.1833C126.346 59.361 126.241 63.6485 126.196 65.932C126.151 68.2155 126.169 68.3652 126.241 68.7288C126.314 69.0924 126.439 69.6655 126.518 70.292C126.597 70.9185 126.626 71.581 126.618 71.9787C126.61 72.3764 126.566 72.4892 126.52 72.6054" stroke="white" stroke-width="14" stroke-linecap="round"/>
<path d="M116.922 68.2014C116.922 68.1987 116.922 68.196 116.918 69.2682C116.914 70.3404 116.906 72.4876 116.701 74.2555C116.495 76.0235 116.092 77.3471 115.877 78.0749C115.637 78.891 115.634 79.4482 115.636 80.3201C115.638 81.5333 115.515 82.1456 115.332 82.7095C115.203 83.1046 114.639 83.2792 114.424 83.8383C114.401 83.899 115.296 83.4366 116.7 82.804C117.351 82.5107 117.909 82.3471 118.556 82.1801C119.203 82.013 119.931 81.8663 121.846 81.7529C123.761 81.6396 126.84 81.5641 128.732 81.4764C130.624 81.3887 131.234 81.2912 131.586 81.2269C131.938 81.1625 132.013 81.1343 132.133 81.0576" stroke="white" stroke-width="14" stroke-linecap="round"/>
<path d="M131.844 79.1035C131.839 79.1035 131.741 79.089 131.567 79.0487C131.199 78.9634 130.849 77.7868 130.635 76.6709C130.586 76.4137 130.615 76.1288 130.705 75.9752C130.867 75.6985 131.25 75.7609 131.524 75.6499C132.01 75.453 132.941 75.0777 134.328 74.6022C135.072 74.347 135.852 73.9373 136.316 73.7302C136.78 73.5231 136.894 73.4987 137.53 73.4835C138.165 73.4684 139.32 73.4634 140.884 73.6274C142.448 73.7914 144.386 74.1246 145.824 74.3333C147.262 74.542 148.142 74.6161 149.048 74.6924" stroke="white" stroke-width="14" stroke-linecap="round"/>
<path d="M130.525 81.8532C130.533 81.8532 130.54 81.8532 133.017 81.8612C135.494 81.8691 140.439 81.885 143.637 81.8205C146.835 81.7561 148.135 81.6107 149.474 81.4609" stroke="white" stroke-width="14" stroke-linecap="round"/>
<path d="M155.282 75.093C155.282 75.0832 155.282 74.5678 155.249 73.7596C155.219 73.0098 154.167 72.8116 154.088 72.8185C154.057 72.8212 154.096 72.9117 154.252 73.0241C154.407 73.1365 154.689 73.291 155.863 73.4757C157.036 73.6604 159.092 73.8706 161.33 73.9508C163.568 74.031 165.926 73.9747 167.189 73.9503C168.452 73.9259 168.548 73.9351 168.842 73.9788C169.137 74.0224 169.627 74.1003 171.051 74.1667C172.475 74.2331 174.818 74.2858 176.22 74.2998C178.01 74.3177 178.627 74.2159 178.982 74.1295C179.306 74.0504 179.401 73.7933 179.5 73.6818C179.595 73.5751 179.979 73.6053 180.396 73.7162C180.745 73.8092 180.382 75.1696 180.143 76.7C179.879 78.3829 180.042 79.1569 180.03 79.2719C180.018 79.3845 179.851 79.4318 179.812 79.5477C179.727 79.8017 180.071 79.9641 180.108 80.0569C180.123 80.0952 180.01 80.116 179.924 80.1142C179.75 80.1104 178.931 79.7267 177.569 79.152C176.947 78.8897 176.431 78.776 174.336 78.679C172.242 78.582 168.577 78.5278 166.602 78.4866C164.627 78.4454 164.453 78.4189 164.097 78.4097C163.741 78.4005 163.208 78.4095 162.697 78.4495C162.186 78.4895 161.714 78.5602 160.551 78.6019C159.388 78.6435 157.548 78.6539 156.487 78.6793C155.201 78.7451 154.784 78.8232 154.467 78.8819C154.334 78.9039 154.261 78.9102 154.185 78.9167" stroke="white" stroke-width="14" stroke-linecap="round"/>
<path d="M204.569 34.2043C204.572 34.2109 204.575 34.2176 204.579 33.24C204.582 32.2624 204.585 30.3004 204.567 29.2203C204.548 28.1402 204.507 28.0015 204.45 27.8982C204.226 27.4894 203.516 27.2832 202.694 27.2326C202.036 27.1921 201.127 28.0598 200.608 28.4256C200.397 28.5744 200.435 27.2245 200.233 25.415C200.114 24.3511 200.132 22.9759 200.104 22.1794C200.077 21.3829 200.048 21.2029 200.005 19.6644C199.963 18.1259 199.908 15.2344 199.839 13.6434C199.761 11.8448 199.569 10.9626 199.491 9.90808C199.459 9.46685 199.27 9.39378 199.308 9.35485C199.387 9.27388 199.721 9.3389 200.498 9.38501C201.275 9.43112 202.519 9.52545 204.105 9.51481C205.69 9.50416 207.581 9.3857 209.231 9.42201C210.88 9.45833 212.232 9.65302 213.102 9.7574C213.972 9.86178 214.318 9.86996 214.474 9.90688C214.621 9.94162 214.415 10.3282 214.107 11.1512C213.897 11.7138 213.679 12.6066 213.534 13.6121C213.389 14.6176 213.349 15.7179 213.364 16.62C213.379 17.5221 213.449 18.1928 213.485 19.292C213.521 20.3912 213.521 21.8987 213.495 22.8467C213.47 23.7947 213.419 24.1375 213.216 24.8623C213.013 25.5871 212.659 26.6834 212.38 27.9257C212.1 29.1681 211.906 30.5234 211.804 31.4646C211.703 32.4059 211.702 32.8921 211.78 33.5622C211.858 34.2322 212.017 35.0713 212.106 36.2524C212.196 37.4334 212.211 38.931 212.063 40.5381C211.914 42.1452 211.601 43.8164 211.433 44.7964C211.265 45.7763 211.252 46.0145 211.161 46.3795" stroke="white" stroke-width="14" stroke-linecap="round"/>
<path d="M205.251 33.7929C205.251 33.7959 205.251 33.799 205.251 37.1365C205.251 40.474 205.251 47.1459 205.214 50.5127C205.177 53.8795 205.102 53.7389 204.703 51.4898C204.303 49.2407 203.581 44.8874 203.146 41.2991C202.711 37.7108 202.585 35.0195 202.497 33.483C202.392 31.6448 202.242 31.245 202.036 31.087C201.777 30.8886 201.341 30.9807 200.997 31.0469C200.761 31.0922 200.541 31.2516 200.286 31.4655C199.774 31.8947 199.766 33.1658 199.77 34.9431C199.772 35.9578 200.012 37.1942 200.122 38.8021C200.232 40.41 200.266 42.3501 200.216 45.3261C200.166 48.3021 200.031 52.2553 200.058 54.8223C200.085 57.3894 200.277 58.4504 200.404 59.0672C200.53 59.6839 200.585 59.8242 200.638 59.9347C200.692 60.0451 200.742 60.1215 200.893 60.2926" stroke="white" stroke-width="14" stroke-linecap="round"/>
<path d="M204.812 55.023C204.812 55.0121 204.812 55.0012 204.812 56.6979C204.812 58.3947 204.812 61.7994 205.703 62.6064C206.593 63.4133 208.374 61.5192 209.473 60.3831C210.908 58.8995 211.444 58.3843 211.692 57.9589C211.929 57.552 212.111 56.8245 212.339 55.389C212.488 54.4517 212.525 53.0665 212.534 51.8111C212.543 50.5558 212.477 49.4662 212.462 48.8226C212.433 47.588 213.044 46.9072 213.385 46.3964C213.491 46.2379 213.553 46.0111 213.605 45.8298C213.656 45.6485 213.676 45.5085 213.618 46.8301C213.559 48.1517 213.423 50.939 213.516 55.6207C213.608 60.3023 213.934 66.7938 214.171 73.4926" stroke="white" stroke-width="14" stroke-linecap="round"/>
<path d="M208.396 66.4257C208.396 66.6205 208.348 67.1782 208.028 68.2515C207.78 69.0824 207.261 70.4637 206.962 71.2479C206.606 72.1817 206.203 72.4797 205.697 72.7538C205.334 72.9501 204.287 73.022 202.9 73.1563C202.369 73.2076 202.189 73.1976 201.921 72.9848C201.654 72.772 201.304 72.3498 200.905 71.4398C200.506 70.5298 200.068 69.1447 199.829 68.3222C199.528 67.2906 199.527 66.3092 199.524 64.8216C199.522 64.0818 199.532 63.3728 199.482 65.2306C199.431 67.0885 199.323 71.5347 199.296 74.0855C199.269 76.6364 199.326 77.1571 199.363 77.809C199.4 78.461 199.417 79.2285 199.48 79.6136C199.543 79.9987 199.652 79.9781 199.879 79.9209C200.105 79.8636 200.446 79.7703 200.793 79.6942C201.139 79.6181 201.48 79.5621 203.954 79.6134C206.428 79.6647 211.024 79.8249 213.457 79.8973C215.891 79.9697 216.023 79.9493 216.48 79.8328C216.937 79.7163 217.715 79.5043 218.613 79.2098" stroke="white" stroke-width="14" stroke-linecap="round"/>
<path d="M217.42 73.0903C217.423 73.0872 217.426 73.0841 220.173 73.0745C222.919 73.065 228.409 73.0491 231.276 73.0346C234.142 73.02 234.219 73.0073 234.298 72.9941" stroke="white" stroke-width="14" stroke-linecap="round"/>
<path d="M223.271 77.3078C223.483 77.3078 224.305 77.3546 225.348 77.4295C226.092 77.483 227.278 77.4656 228.565 77.5018C229.852 77.5379 231.205 77.6019 234.692 77.5291C238.178 77.4563 243.756 77.2447 246.687 77.1416C249.734 77.0504 249.956 77.0914 250.271 77.208C250.483 77.2957 250.801 77.4414 251.129 77.5915" stroke="white" stroke-width="14" stroke-linecap="round"/>
<path d="M236.338 71.9252C236.338 71.9221 236.338 71.919 238.617 71.9778C240.895 72.0366 245.453 72.1574 248.721 72.3475C251.989 72.5376 253.831 72.7933 255.35 72.9305C256.87 73.0677 258.011 73.0786 259.099 72.9802C260.188 72.8818 261.189 72.6738 261.838 72.5662C263.139 72.3505 263.704 72.7554 264.156 72.8714C264.457 72.9488 264.708 72.8293 264.741 72.9222C265.148 74.0705 264.355 75.2807 264.497 76.5776C264.664 78.1025 264.505 78.4885 264.695 79.1495C264.732 79.277 264.515 79.3263 263.77 79.3692C263.024 79.412 261.694 79.4497 259.535 79.438C257.377 79.4262 254.43 79.3638 252.449 79.4101C250.467 79.4564 249.54 79.6132 248.666 79.6944C247.792 79.7757 246.999 79.7765 245.985 79.712C244.972 79.6474 243.763 79.5173 243.08 79.4372C242.396 79.3571 242.275 79.331 242.02 79.2854C241.765 79.2399 241.379 79.1759 240.806 79.1072" stroke="white" stroke-width="14" stroke-linecap="round"/>
<path d="M281.317 13.5032C281.317 13.5071 281.317 13.5111 279.094 13.5124C276.872 13.5137 272.426 13.5122 269.918 13.4824C267.41 13.4526 266.974 13.3945 266.098 13.2044C265.222 13.0143 263.918 12.6939 262.393 12.1448C260.867 11.5957 259.159 10.8276 258.153 10.3923C256.907 9.85292 256.119 9.77751 255.278 9.75325C254.956 9.74397 254.848 9.75667 254.673 10.7442C254.499 11.7318 254.26 13.6978 254.136 15.2271C253.929 17.7839 254.079 19.0564 254.24 19.3753C254.608 20.1055 256.617 18.7665 258.794 18.5292C260.425 18.3513 263.151 18.3443 268.301 18.4804C273.451 18.6165 280.949 18.9695 285.199 19.1441C289.449 19.3187 290.223 19.3043 290.569 19.2422C290.914 19.1801 290.807 19.0709 288.577 17.6848C286.346 16.2987 281.996 13.6392 279.578 12.1994C277.161 10.7595 276.809 10.62 276.473 10.5156C276.137 10.4113 275.827 10.3464 273.774 10.2864C271.722 10.2263 267.936 10.173 265.909 10.1424C263.883 10.1117 263.731 10.1053 263.725 10.0799C263.718 10.0545 263.862 10.0104 266.621 9.89048C269.381 9.77055 274.753 9.57613 279.558 9.50001C284.363 9.4239 288.437 9.47198 290.737 9.53389C293.038 9.59579 293.441 9.67008 293.856 9.74661" stroke="white" stroke-width="14" stroke-linecap="round"/>
<path d="M292.416 12.9973C292.423 12.9973 292.431 12.9973 297.343 12.9948C302.255 12.9923 312.072 12.9872 317.54 12.8796C323.009 12.772 323.832 12.562 324.954 12.4287C327.458 12.1309 329.106 12.1598 329.472 12.0654C330.106 11.9018 330.279 10.9996 330.449 10.4986C330.517 10.2978 330.613 10.1209 330.656 10.0253C330.705 9.9182 330.331 10.158 329.054 10.205C327.9 10.2476 325.714 10.2391 323.648 10.2701C321.583 10.3011 319.704 10.349 317.09 10.3087C314.476 10.2683 311.183 10.1382 308.231 10.138C305.279 10.1378 302.768 10.2715 300.18 10.4093" stroke="white" stroke-width="14" stroke-linecap="round"/>
<path d="M297.281 16.9961C297.285 16.9961 297.288 16.9961 298.321 16.9961C299.354 16.9961 301.417 16.9961 302.544 17.0027C303.8 17.0101 304.199 17.1004 304.717 17.2559C305.222 17.4073 305.728 17.5204 307.508 17.4214C308.998 17.3384 311.689 17.3762 314.741 17.4313C317.792 17.4864 321.124 17.6056 323.059 17.7108C324.994 17.8161 325.431 17.9038 326.268 17.9546C328.33 18.0165 329.767 18.0472 330.078 18.0918C330.214 18.117 330.306 18.1477 330.426 18.192" stroke="white" stroke-width="14" stroke-linecap="round"/>
<path d="M287.85 13.8945C287.853 13.8945 287.857 13.8945 287.877 16.4564C287.897 19.0182 287.932 24.1419 287.961 26.8563C287.99 29.5707 288.012 29.7205 288.117 30.1698C288.602 32.2431 288.72 33.7425 288.843 34.755C288.856 34.8666 288.94 34.943 289.003 34.9396C289.065 34.9363 289.132 34.8442 290.325 32.9576C291.518 31.0709 293.835 27.3924 295.055 25.4417C296.34 23.3873 296.451 23.1782 296.606 23.0375C296.682 22.9688 296.796 22.9633 296.883 23.0871C296.97 23.2109 297.038 23.4788 297.336 25.1252C297.633 26.7715 298.157 29.7881 298.431 32.0467C298.705 34.3053 298.713 35.7144 298.632 36.7882C298.55 37.862 298.379 38.5577 298.022 39.6229C297.127 42.1017 296.543 43.7211 296.489 44.0246C296.466 44.165 296.451 44.278 296.203 44.4521" stroke="white" stroke-width="14" stroke-linecap="round"/>
<path d="M286.092 27.8945C286.096 27.8945 286.099 27.8945 286.106 28.8227C286.112 29.7508 286.121 31.6071 286.17 32.7972C286.219 33.9872 286.307 34.4548 286.434 35.2413C286.561 36.0278 286.723 37.119 286.811 40.9843C286.898 44.8497 286.906 51.456 286.921 54.9072C286.935 58.3584 286.955 58.4541 287.935 56.833C288.916 55.2118 290.857 51.8707 291.933 50.2277C293.008 48.5846 293.159 48.7409 293.476 49.575C293.793 50.4092 294.271 51.9166 294.589 52.8566C294.907 53.7967 295.05 54.1237 295.245 54.5513" stroke="white" stroke-width="14" stroke-linecap="round"/>
<path d="M297.519 41.2578C297.519 41.265 297.519 41.2721 297.509 42.7021C297.498 44.132 297.476 46.9845 297.378 50.6337C297.279 54.2829 297.105 58.6424 297.186 62.105C297.267 65.5675 297.608 68.001 297.788 69.9192C297.967 71.8374 297.974 73.1665 297.957 73.9109C297.898 74.7745 297.628 75.4173 297.229 76.4124C297.058 76.8877 296.951 77.3028 296.818 78.0038" stroke="white" stroke-width="14" stroke-linecap="round"/>
<path d="M288.411 45.2227C288.411 45.2339 288.411 45.2452 288.411 48.7474C288.411 52.2496 288.411 59.2424 288.369 63.5711C288.326 67.8997 288.242 69.3522 288.167 70.2341C288.069 71.3871 287.799 72.0413 287.469 72.7735C287.17 73.4353 286.904 74.0338 286.728 75.4548C286.35 78.514 286.46 80.4413 286.437 79.7759C286.418 79.2122 286.435 78.1885 286.734 76.3934C287.032 74.5983 287.625 72.0625 287.973 70.6302C288.385 68.9401 288.61 68.4582 288.821 68.0795C288.908 67.9228 288.998 67.8635 289.087 67.8912C289.316 67.9624 289.409 68.4531 289.459 69.2741C289.471 70.5922 289.372 71.8871 289.201 72.7065C289.123 73.0358 289.066 73.1896 289.007 73.348" stroke="white" stroke-width="14" stroke-linecap="round"/>
<path d="M288.724 78.293C288.732 78.293 288.74 78.4064 288.699 78.6319C288.612 79.1194 287.705 79.5064 286.99 79.9437C286.844 80.0332 286.682 80.0955 286.715 80.1334C286.748 80.1712 286.975 80.1727 287.835 80.096C288.695 80.0193 290.182 79.8643 291.609 79.777C293.036 79.6896 294.358 79.6747 295.425 79.7492C296.492 79.8237 297.264 79.988 297.714 80.0926C298.164 80.1971 298.27 80.2368 298.556 80.2844" stroke="white" stroke-width="14" stroke-linecap="round"/>
<path d="M458.842 39.2069C458.669 39.1982 457.819 39.0983 457.104 39.1546C456.807 39.178 456.414 40.3354 455.862 41.543C455.694 41.9089 455.704 41.7485 455.841 41.3965C456.866 38.7529 458.788 36.2436 459.517 35.5271C459.837 35.2124 460.222 35.191 460.558 35.185C460.895 35.179 461.214 35.2386 461.459 35.4229C461.704 35.6073 461.864 35.9146 461.949 36.1588C462.034 36.4029 462.038 36.5746 462.172 32.5525C462.306 28.5304 462.57 20.3094 462.731 15.9277C462.904 11.251 463.003 10.2956 462.912 9.36413C462.847 8.69795 461.048 9.77565 458.027 9.80562C455.296 9.83271 453.424 9.25554 452.539 8.97181C451.884 8.76185 451.142 8.99068 449.104 9.65997C448.12 9.98316 447.427 9.77317 447.134 9.82597C446.988 9.85231 446.97 10.1475 447.305 12.8618C447.64 15.5761 448.359 20.7696 448.393 27.1653C448.428 33.561 447.757 41.0015 447.351 45.1382C446.946 49.2748 446.825 49.8822 446.772 49.5725C446.719 49.2629 446.738 48.0178 448.267 42.2288C449.797 36.4397 452.837 26.1444 454.414 21.1247C455.991 16.105 456.011 16.6728 455.466 20.8392C454.921 25.0056 453.809 32.7535 453.23 38.2678C452.651 43.782 452.64 46.828 452.628 49.9662" stroke="white" stroke-width="14" stroke-linecap="round"/>
<path d="M453.502 48.661C453.502 48.6839 453.502 48.7067 453.502 50.8974C453.502 53.088 453.502 57.4457 454.375 56.7334C455.249 56.021 456.997 50.1067 458.04 46.7668C459.083 43.4269 459.368 42.8407 459.599 42.4109C459.83 41.9812 459.998 41.7256 460.106 42.2356C460.215 42.7457 460.258 44.0291 460.23 46.8821C460.202 49.7351 460.101 54.1186 460.094 56.704C460.087 59.2894 460.176 59.9438 460.227 61.4236C460.278 62.9034 460.288 65.1889 460.248 67.6267C460.208 70.0645 460.118 72.5853 460.187 74.7226C460.257 76.8599 460.488 78.5373 460.48 79.4459C460.471 80.3545 460.215 80.4435 459.325 80.4894C456.922 80.6132 455.102 80.4858 454.285 80.4058C451.748 80.1577 450.959 80.6196 450.257 80.7917C449.074 81.0816 448.564 81.4424 448.265 81.4813C448.136 81.4981 448.078 81.2602 448.036 79.3242C447.993 77.3883 447.976 73.6979 447.912 71.5976C447.816 68.4058 447.535 67.3644 447.763 65.5373C447.929 64.2124 448.43 62.1146 448.659 60.008C448.887 57.9013 448.887 55.8581 448.854 54.8704C448.824 54.007 448.578 56.3897 448.432 59.8776C448.416 61.2985 448.567 61.7557 448.957 62.4832C449.222 62.9356 449.624 63.557 450.038 64.1972" stroke="white" stroke-width="14" stroke-linecap="round"/>
<path d="M353.423 54.3578C353.423 54.3507 353.423 54.3436 353.465 50.584C353.506 46.8243 353.589 39.3122 353.552 35.0139C353.514 30.7155 353.353 29.8586 353.261 28.0811C353.168 26.3036 353.15 23.6317 353.195 21.1954C353.278 16.6377 353.439 14.102 353.341 13.286C353.122 11.4705 352 10.8177 350.983 10.0904C350.552 9.78262 349.996 9.63767 349.697 9.29393C349.582 9.16105 349.809 8.96628 351.423 8.85211C353.038 8.73794 356.102 8.6729 360.4 9.0544C364.699 9.4359 370.139 10.2659 373.735 10.7101C377.332 11.1542 378.921 11.1873 380.855 11.277C382.789 11.3667 385.021 11.5119 387.359 11.878" stroke="white" stroke-width="14" stroke-linecap="round"/>
<path d="M354.397 80.554C354.166 80.5453 353.44 80.3354 352.501 80.0954C352.277 80.038 352.095 80.0096 351.747 79.9887C351.398 79.9677 350.885 79.9677 350.635 78.0419C350.385 76.1161 350.414 72.2645 350.567 69.2878C350.721 66.3112 350.998 64.3261 351.257 62.5595C351.516 60.7928 351.749 59.3048 351.881 52.7205C352.013 46.1362 352.037 34.5007 352.019 28.2424C351.999 21.455 351.877 20.3028 351.86 19.2848C351.647 18.0922 351.354 17.0623 351.291 16.5858C351.269 16.3487 351.268 16.1212 351.268 15.8867" stroke="white" stroke-width="14" stroke-linecap="round"/>
<path d="M350.857 77.5762C350.857 78.0927 350.444 79.6393 350.043 80.2016C349.954 80.3258 351.422 80.0276 353.15 79.6882C353.774 79.5655 353.892 79.5662 355.241 79.5178C356.591 79.4694 359.17 79.3777 360.603 79.3522C362.035 79.3268 362.244 79.3702 362.397 79.4088C362.55 79.4474 362.641 79.4798 362.786 79.5442" stroke="white" stroke-width="14" stroke-linecap="round"/>
<path d="M362.899 79.932C362.899 79.9223 362.899 79.9125 362.874 77.7536C362.848 75.5947 362.798 71.287 362.644 67.9166C362.491 64.5462 362.238 62.2436 361.919 60.3206C361.601 58.3976 361.226 56.9239 360.968 55.402C360.711 53.8801 360.583 52.3546 360.486 51.393C360.39 50.4315 360.329 50.08 360.279 48.8643C360.229 47.6486 360.192 45.5792 360.178 43.3438" stroke="white" stroke-width="14" stroke-linecap="round"/>
<path d="M360.018 12.0781C360.018 12.0983 360.018 12.1186 360.034 15.2938C360.05 18.469 360.082 24.7985 360.304 29.361C360.526 33.9235 360.936 36.527 361.195 38.0334C361.454 39.5399 361.548 39.8703 361.623 39.9768C361.698 40.0834 361.751 39.956 361.837 39.508C361.924 39.06 362.043 38.2952 362.066 35.2222C362.089 32.1492 362.012 26.7911 361.99 23.9212C361.967 20.8323 362.14 20.3002 362.338 19.7285C362.438 19.463 362.536 19.2476 362.619 19.0853C362.702 18.923 362.766 18.8205 362.92 18.624" stroke="white" stroke-width="14" stroke-linecap="round"/>
<path d="M360.457 17.1148C360.47 17.1148 360.483 17.1148 362.841 17.1091C365.198 17.1034 369.9 17.0921 372.779 17.0134C375.658 16.9346 376.573 16.7888 378.34 16.7173C380.108 16.6458 382.701 16.6532 384.272 16.6182C385.843 16.5832 386.313 16.5057 386.797 16.4258" stroke="white" stroke-width="14" stroke-linecap="round"/>
<path d="M385.865 15.8575C385.868 15.8575 385.872 15.8575 388.306 15.8575C390.74 15.8575 395.606 15.8575 398.666 15.9592C401.727 16.061 402.836 16.2645 403.648 16.3937C404.937 16.5988 406.03 16.7949 406.98 17.0785C407.79 17.3201 408.347 17.8598 408.993 18.6708C409.195 18.9248 409.39 19.032 409.627 19.1039C409.751 19.1416 409.894 19.1356 408.918 18.4228C407.942 17.7099 405.845 16.2787 404.08 15.255C402.315 14.2313 400.946 13.6586 399.472 13.2053C397.997 12.7519 396.46 12.4352 395.213 12.2443C393.967 12.0533 393.058 11.9977 391.947 11.8491C390.837 11.7004 389.552 11.4605 388.551 11.2177C387.549 10.975 386.87 10.7366 387.35 10.4608C387.83 10.1849 389.49 9.87879 392.207 9.75703C394.924 9.63526 398.649 9.70713 401.408 9.90409C404.168 10.1011 405.849 10.4209 406.764 10.6031C407.679 10.7853 407.778 10.8201 408.435 10.9523C409.091 11.0845 410.303 11.3131 411.086 11.498C412.203 11.7615 413.077 12.2687 413.988 12.7908C414.466 13.0948 414.693 13.2884 414.887 13.5078C414.984 13.6315 415.078 13.7805 415.213 14.0605" stroke="white" stroke-width="14" stroke-linecap="round"/>
<path d="M413.433 17.5537C413.417 17.546 413.406 18.0439 413.484 19.1172C413.573 20.3369 413.952 21.0784 414.517 22.2215C415.025 23.2507 416.027 25.1699 416.7 26.8479C417.373 28.526 417.698 29.8991 417.879 30.5482C418.06 31.1972 418.089 31.0805 418.182 29.2258C418.275 27.3711 418.433 23.782 418.548 21.4454C418.663 19.1087 418.731 18.1333 418.744 17.5103C418.769 16.2063 418.222 15.532 417.831 15.1329C417.249 14.5391 416.48 14.0847 415.931 13.4858C415.729 13.2659 415.681 12.8936 415.729 12.5827C415.776 12.2734 416.861 12.8883 418.51 14.189C419.587 15.038 420.968 16.4893 422.184 17.78C423.4 19.0707 424.361 20.2128 424.912 20.8901C425.595 21.7291 425.799 22.179 426.124 23.3116C426.374 24.1844 426.655 25.7003 426.827 27.9798C426.998 30.2593 427.016 33.2663 426.997 34.9332C426.978 36.6001 426.922 36.8358 426.673 37.5408C426.424 38.2458 425.984 39.4129 425.309 40.6837C424.633 41.9545 423.736 43.2936 423.229 44.0289C422.649 44.8686 422.296 45.1302 421.889 45.4317C421.642 45.6148 420.905 46.0934 419.896 46.7688C419.53 47.0139 419.447 47.0418 419.405 46.4323C419.363 45.8228 419.361 44.5701 419.375 43.5861C419.397 41.9245 419.433 41.0978 419.363 40.7785C419.144 39.7684 418.451 39.1809 417.926 38.8626C417.48 38.592 417.204 38.5854 417.023 38.6236C416.837 38.6626 416.514 39.2346 416.004 40.3026C415.485 41.3892 414.749 42.3553 414.162 43.1795C413.025 44.3255 411.856 45.2744 411.679 45.627C411.641 45.7451 411.6 45.8934 411.557 46.0462" stroke="white" stroke-width="14" stroke-linecap="round"/>
<path d="M409.044 47.1914C409.02 47.1914 408.995 47.1914 406.928 47.2508C404.861 47.3101 400.752 47.4289 397.763 47.6198C394.773 47.8107 393.028 48.0701 391.514 48.3313C390 48.5924 388.772 48.8473 387.506 49.1099" stroke="white" stroke-width="14" stroke-linecap="round"/>
<path d="M366.342 49.4043C366.355 49.4043 366.369 49.4043 369.747 49.4483C373.124 49.4924 379.866 49.5805 383.867 49.6445C387.867 49.7085 388.922 49.7458 387.159 50.1885C385.397 50.6312 380.787 51.4782 377.972 52.0373C375.158 52.5964 374.28 52.8421 373.525 52.991C371.472 53.396 370.792 53.5483 370.23 53.7657C370.129 53.7842 370.042 53.7866 373.218 53.7005C376.395 53.6144 382.838 53.4398 389.477 53.2599" stroke="white" stroke-width="14" stroke-linecap="round"/>
<path d="M394.408 55.8847C394.546 55.8446 395.913 55.4931 397.981 55.0115C398.975 54.7801 399.892 54.7436 400.883 54.5935C401.874 54.4433 402.921 54.2237 404.118 54.0482C405.314 53.8727 406.63 53.7478 407.4 53.65C408.362 53.5278 408.963 53.2032 410.458 52.587C411.523 52.148 413.268 51.5971 414.209 51.2846C415.246 50.9404 415.933 50.8428 416.862 50.6966C417.863 50.3692 419.669 49.6693 420.502 49.1701C420.646 49.0099 420.814 48.7958 420.945 48.5273" stroke="white" stroke-width="14" stroke-linecap="round"/>
<path d="M385.146 55.3105C385.15 55.3105 385.153 55.3105 386.161 55.3224C387.169 55.3343 389.181 55.3581 390.442 55.4173C391.704 55.4765 392.152 55.5705 392.738 55.7625C393.324 55.9546 394.033 56.2418 394.675 56.5628C395.317 56.8837 395.871 57.2297 396.588 57.7371C398.19 58.8716 399.143 59.6666 399.316 59.8577C399.509 60.0703 399.682 60.4582 399.804 60.8704C399.851 61.0309 399.751 61.1166 399.606 61.1815C399.26 61.3365 398.148 61.3597 396.575 61.3304C395.365 61.3079 394.135 60.7944 392.996 60.3581C392.578 60.1981 392.493 60.1453 392.409 60.0298C392.324 59.9144 392.245 59.7333 392.244 59.6612C392.243 59.589 392.323 59.6312 394.205 61.1681C396.088 62.7051 399.772 65.7355 402.056 67.7232C404.34 69.7108 405.113 70.564 405.607 71.1257C406.304 71.9199 406.587 72.2943 407.132 72.7909C408.328 73.8792 409.566 74.9486 410.198 75.6827C410.751 76.5449 411.219 77.7735 411.504 78.3748C411.566 78.4791 411.636 78.6095 411.748 78.8825" stroke="white" stroke-width="14" stroke-linecap="round"/>
<path d="M403.924 60.1074C404.057 60.1184 405.133 60.6811 407.273 62.4517C407.873 62.9479 408.332 63.5992 409.879 65.3317C411.426 67.0642 414.001 69.9104 415.582 71.7383C417.162 73.5661 417.671 74.2896 418.237 74.9225C419.335 76.1493 420.454 76.8576 421.207 77.3206C421.793 77.7203 422.138 77.9541 422.328 78.053C422.429 78.1059 422.537 78.1641 422.712 78.2385" stroke="white" stroke-width="14" stroke-linecap="round"/>
<path d="M409.494 76.0859C409.728 76.0984 410.793 76.3269 412.641 76.7875C414.113 77.1546 415.005 77.2243 416.602 78.0176C417.65 78.7163 417.898 78.8583 418.281 78.9214C418.549 78.9572 418.965 79.0009 419.488 79.0459" stroke="white" stroke-width="14" stroke-linecap="round"/>
<path d="M425.453 84.9189C425.457 84.9189 425.46 84.9189 426.71 84.9217C427.959 84.9245 430.454 84.93 432.149 85.0043C434.67 85.1148 435.644 85.3709 435.757 85.2546C436.048 84.9538 434.76 84.1276 433.505 83.1182C432.191 82.0604 431.075 81.5375 430.486 81.0404C429.726 80.3991 429.283 79.8154 429.16 79.6543C428.916 80.7039 428.584 82.5839 428.316 83.1482C428.261 83.2664 428.227 83.3534 428.192 83.443" stroke="white" stroke-width="4" stroke-linecap="round"/>
<path d="M508.101 62.7514C508.096 62.8416 507.769 63.8069 507.193 64.9531C506.885 65.5668 506.329 66.5619 505.117 67.9996C504.638 68.5682 503.747 69.2728 502.922 69.8943C502.097 70.5158 501.31 70.9808 500.603 71.3483C499.317 72.0172 498.244 72.5295 497.249 73.2803C496.669 73.718 495.996 74.3483 495.678 74.6137C495.449 74.8045 496.665 73.6366 498.774 71.8187C499.701 71.0191 500.42 70.5658 502.222 68.8256C504.024 67.0854 506.907 64.0966 508.533 62.4638C510.704 60.2832 511.358 60.2079 511.953 60.1535C512.083 60.1416 512.193 60.2119 512.272 60.3165C512.771 60.9808 512.411 62.101 511.566 64.002C510.809 65.706 509.194 68.8235 507.842 71.2423C506.49 73.6611 505.401 75.2644 504.825 76.1318C504.249 76.9992 504.219 77.0823 504.278 77.1178C504.457 77.2253 505.424 76.7978 506.677 76.2685C507.284 76.0126 507.823 75.5902 508.984 74.5734C509.746 73.9057 510.796 72.8585 512.314 71.5387C513.832 70.219 515.77 68.6402 517.423 67.0937C519.076 65.5473 520.385 64.081 522.167 62.4498C523.949 60.8186 526.163 59.0669 527.645 57.769C529.127 56.4712 529.808 55.6804 530.381 54.925C531.451 53.5135 531.895 52.6504 531.964 52.436C532.19 51.7408 531.963 50.5758 531.826 50.098C531.773 49.9133 531.608 49.9045 531.492 49.8925C531.276 49.8702 530.324 50.1729 527.661 51.4351C525.802 52.3162 523.093 54.0431 521.198 55.0566C519.304 56.07 518.352 56.4091 517.346 56.697C516.341 56.9848 515.31 57.211 514.717 57.3291C514.125 57.4471 514.001 57.4501 514.202 56.9919C514.402 56.5337 514.93 55.6141 515.419 54.8853C516.278 53.6029 517.3 52.657 518.22 51.8639C519.413 50.8357 520.636 50.4229 521.643 49.7055C521.837 49.5521 521.911 49.4728 522.216 49.0105C522.52 48.5483 523.052 47.7056 523.671 46.7637" stroke="white" stroke-width="15" stroke-linecap="round"/>
<path d="M523.943 42.5659C523.951 42.5812 522.675 41.5706 520.661 39.9521C519.756 39.2251 519.329 38.6211 518.777 37.7729C518.252 36.967 518.025 36.4134 517.3 35.1105C516.63 33.9061 515.262 31.6472 514.287 30.1642C513.313 28.6811 512.752 28.0547 512.292 27.6175C511.535 26.8988 510.545 26.0239 509.568 24.907C508.752 23.9746 507.974 23.7159 506.991 22.7676C506.677 22.4654 506.494 22.0287 506.281 21.461C506.1 20.981 506.136 20.4192 506.42 19.7522C506.601 19.3275 507.273 18.9741 508.369 18.4045C509.464 17.8349 511.069 17.1228 512.212 16.5548C514.023 15.6545 514.74 15.0815 514.9 14.8512C515.394 14.1359 514.404 12.8357 514.059 12.4177C513.802 12.1068 513.445 12.1116 513.216 11.9886C513.085 11.9184 512.947 11.7942 513.721 13.0063C514.495 14.2184 516.192 16.7609 517.366 18.393C518.54 20.025 519.141 20.6697 521.171 22.3551C523.201 24.0405 526.642 26.7471 528.762 28.5345C530.882 30.3219 531.577 31.1081 531.914 31.5791C532.252 32.0501 532.211 32.182 531.735 32.7259C531.259 33.2697 530.348 34.2215 529.104 35.2705C527.86 36.3194 526.309 37.4367 525.361 38.1712C524.413 38.9057 524.114 39.2236 523.729 39.6861" stroke="white" stroke-width="15" stroke-linecap="round"/>
<path d="M510.731 21.2626C510.466 21.3301 509.593 21.3608 508.411 21.3284C507.825 21.3123 506.936 20.8527 505.403 20.1955C504.63 19.8646 503.845 19.5992 503.038 19.2115C502.231 18.8238 501.419 18.3372 500.681 17.8639C498.453 16.4332 497.961 15.9552 497.444 15.5458C496.697 14.9555 495.602 14.07 494.736 13.1464C494.065 12.4312 493.795 11.5786 493.233 11.0695C492.938 10.8027 492.591 10.7513 492.484 10.6254C492.438 10.5709 492.564 10.4682 493.908 10.281C495.251 10.0938 497.847 9.80812 500.127 9.668C502.407 9.52789 504.293 9.54199 505.571 9.59147C506.849 9.64094 507.463 9.72536 508.175 9.7839C508.887 9.84243 509.677 9.87253 510.132 9.90009C510.587 9.92765 510.683 9.95175 510.782 9.97658" stroke="white" stroke-width="15" stroke-linecap="round"/>
<path d="M533.987 42.58C533.979 42.5922 533.971 42.6044 533.971 42.5547C533.971 42.5049 533.979 42.3929 535.091 40.4821C536.204 38.5713 538.419 34.8651 539.933 32.5348C541.446 30.2046 542.19 29.3625 544.579 27.2262C546.968 25.0898 550.978 21.6847 553.86 19.0122C556.741 16.3398 558.372 14.5032 559.396 13.2643C560.858 11.4956 561.287 10.7025 561.378 10.5339C561.399 10.4948 561.17 10.5694 560.368 11.1948C559.567 11.8203 558.148 12.9993 554.512 17.5662C550.875 22.1331 545.063 30.0521 541.961 34.3377C538.859 38.6232 538.642 39.0353 538.596 39.2315C538.549 39.4278 538.68 39.3957 540.493 38.2521C542.306 37.1086 545.799 34.8546 548.178 33.0715C550.558 31.2884 551.719 30.0445 552.862 28.734C554.005 27.4235 555.094 26.0841 556.756 24.4397C558.417 22.7954 560.617 20.8867 562.058 19.5768C563.499 18.2669 564.113 17.6135 564.525 17.2132C565.1 16.6545 565.422 16.5233 565.578 16.5475C565.658 16.5599 565.658 16.7429 565.38 17.6003C565.103 18.4576 564.527 20.0273 564.162 20.9579C563.796 21.8885 563.657 22.1326 562.723 23.3569C561.789 24.5812 560.063 26.7785 558.85 28.2492C557.636 29.72 556.988 30.3978 556.233 31.2932C555.478 32.1885 554.637 33.2809 553.498 34.8598C552.359 36.4387 550.948 38.471 549.894 39.8443C548.839 41.2176 548.182 41.8704 547.604 42.3934C547.026 42.9164 546.545 43.2898 546.267 43.5139C545.989 43.7379 545.929 43.8012 545.867 43.8664" stroke="white" stroke-width="15" stroke-linecap="round"/>
<path d="M536.646 47.9824C536.66 48.0029 536.674 48.0233 537.447 48.9178C538.22 49.8123 539.753 51.5802 541.004 52.8492C542.255 54.1182 543.178 54.8346 544.052 55.4185C544.927 56.0025 545.724 56.4322 546.671 56.9082C547.617 57.3841 548.688 57.8933 549.622 58.4322C550.557 58.9711 551.322 59.5244 552.147 60.2475C552.973 60.9706 553.836 61.8469 553.293 60.8546C552.75 59.8624 550.775 56.975 549.636 55.2486C548.497 53.5223 548.255 53.0443 548.027 52.5007C547.192 50.5121 547.266 49.367 547.33 48.6158C547.353 48.3475 547.54 48.3403 547.675 48.3377C547.937 48.3328 549.03 48.9876 550.964 50.3586C551.959 51.0646 552.884 51.9277 553.786 52.8138C554.689 53.6999 555.516 54.6177 556.655 55.6701C557.794 56.7224 559.22 57.8816 560.052 58.5811C561.079 59.4853 561.54 60.0621 561.964 60.6811C562.127 60.9342 562.184 61.0635 562.286 61.3916" stroke="white" stroke-width="15" stroke-linecap="round"/>
<path d="M545.666 54.3967C545.666 54.3894 545.687 54.534 546.493 56.3335C547.24 58.0018 548.823 61.134 550.138 63.3623C551.452 65.5906 552.489 66.8024 553.268 67.5968C554.047 68.3911 554.538 68.7313 555.166 69.085C556.515 69.8458 557.522 70.2315 558.086 70.5365C558.464 70.7402 558.945 71.1766 560.298 72.5785C561.652 73.9805 563.842 76.3689 565.128 77.7607C566.72 79.4838 567.255 80.0698 567.605 80.5103C568.037 81.0532 569.382 81.6413 570.31 81.9176C570.763 82.0522 571.412 81.8704 572.361 81.8056C573.79 81.7078 575.179 81.9134 576.168 82.0481C577.948 82.2905 579.482 81.6862 580.156 81.5799C580.417 81.5387 580.483 81.3845 580.522 81.2536C580.562 81.1226 580.564 80.9841 580.549 80.8672C580.433 79.962 578.797 78.7077 578.051 78.1979C576.794 77.3398 575.359 77.2952 575.211 77.1923C575.056 77.0841 574.486 76.0101 573.358 74.0992C572.793 73.1426 572.038 72.3415 571.067 71.2887C570.096 70.236 568.88 68.989 568.211 68.3156C567.329 67.4275 566.89 67.4275 566.279 67.2538C566.096 67.1772 565.902 67.0726 565.53 66.8491C565.158 66.6257 564.614 66.2865 563.97 65.916" stroke="white" stroke-width="15" stroke-linecap="round"/>
<path d="M558.832 23.9891C558.832 24.0044 558.931 24.0019 559.577 23.8241C561.135 23.3953 562.713 22.9298 563.625 22.8243C564.052 22.775 564.331 22.7477 564.908 22.5674C565.909 22.2544 566.784 21.7425 567.639 21.1256C569.054 20.1055 570.018 19.1969 570.296 18.8086C570.54 18.4684 570.825 17.7147 571.388 16.5283C572.044 15.1441 572.885 14.1161 573.368 13.3936C574.08 12.3294 574.342 11.8521 574.419 11.6641C574.514 11.4318 573.189 11.0556 571.314 10.6516C568.844 10.1194 568.091 10.4608 567.699 10.4013C567.847 10.3649 568.914 10.3537 571.083 10.4588C572.323 10.5572 573.846 10.7473 575.5 10.9431" stroke="white" stroke-width="15" stroke-linecap="round"/>
<path d="M566.585 7.82031L566.574 7.83075" stroke="white" stroke-width="15" stroke-linecap="round"/>
<path d="M507.138 68.9141C507.141 68.9141 507.144 68.9141 506.341 69.7674C505.538 70.6208 503.928 72.3275 502.822 73.4159C501.716 74.5043 501.163 74.9226 500.416 75.3993C499.669 75.8761 498.744 76.3985 498.081 76.828C496.475 77.8687 495.816 78.3109 494.753 78.5571C493.746 78.7905 492.499 78.2546 490.696 78.1007C489.819 78.0258 489.392 79.5265 489.091 79.9531C488.972 80.1213 489.449 80.2076 489.856 80.3425C490.73 80.6318 492.295 80.8039 494.106 80.8308C494.939 80.8431 495.595 80.7692 496.313 80.676C497.031 80.5829 497.791 80.4515 498.641 80.3886C500.405 80.335 501.543 80.3717 502.098 80.4133C502.458 80.428 502.977 80.4298 503.513 80.4316" stroke="white" stroke-width="15" stroke-linecap="round"/>
<path d="M570.354 80.4219C570.469 80.4866 571.538 81.3412 572.744 82.1528C573.455 82.631 574.547 83.1694 575.493 83.8828C576.004 84.2676 576.204 84.4523 576.553 84.5582C577.273 84.7767 578.573 84.7914 580.193 84.9001C582.941 85.0844 583.566 85.2936 583.934 85.3483C584.421 85.3997 584.891 85.4876 585.092 85.543C585.202 85.5758 585.329 85.618 585.486 85.6632" stroke="white" stroke-width="15" stroke-linecap="round"/>
<path d="M589.74 90.3819C589.768 90.3819 589.795 90.3819 590.947 90.3819C592.098 90.3819 594.373 90.3819 595.692 90.3997C597.012 90.4176 597.307 90.4534 597.98 90.8612C598.652 91.2691 599.694 92.0479 600.211 92.4078C600.664 92.7232 599.495 91.8621 597.273 90.5411C595.339 89.3912 593.99 88.9324 593.5 88.5669C592.779 88.0301 592.433 87.0717 592.062 85.7073C591.964 85.346 591.815 85.0571 592.476 85.8875C593.137 86.718 594.594 88.6814 595.51 89.8375C596.426 90.9935 596.755 91.2828 597.023 91.4378C597.292 91.5928 597.49 91.6048 597.556 91.5564C597.622 91.5081 597.55 91.399 597.024 90.4715C596.498 89.5441 595.52 87.8016 594.968 86.8441C594.415 85.8865 594.318 85.7668 594.216 85.7849C593.466 85.9182 593.669 87.7752 593.528 88.8048C593.438 89.1603 593.309 89.1771 592.881 89.0224C592.453 88.8677 591.73 88.5411 590.986 88.2045" stroke="white" stroke-width="3" stroke-linecap="round"/>
<path d="M580.309 10.554C580.309 10.5576 580.309 10.5611 581.262 9.64793C582.214 8.73475 584.119 6.90472 585.229 5.86629C586.573 4.60944 587.311 4.21727 588.06 3.86336C588.72 3.55177 589.118 3.61736 589.381 3.65035C589.494 3.66453 589.549 3.74932 589.586 3.87677C589.675 4.18246 589.366 5.03865 588.892 6.08804C588.653 6.61618 587.937 7.21932 586.025 8.8955C584.695 10.0611 582.657 11.8899 581.653 12.7692C580.649 13.6484 580.746 13.5288 582.129 12.1814C583.512 10.834 586.178 8.26244 587.787 6.77465C589.813 4.90104 590.525 4.54323 590.866 4.39549C591.425 4.15347 591.721 4.11647 591.798 4.1508C592.008 4.24467 590.86 4.55449 589.201 4.91706C588.135 5.15012 586.572 5.27329 584.822 5.37314C583.072 5.47298 581.17 5.49219 580.012 5.52347C578.854 5.55475 578.497 5.59752 578.391 5.61705C578.284 5.63658 578.438 5.63158 579.369 5.41763C580.299 5.20369 582.002 4.78095 583.073 4.54173C584.144 4.30252 584.532 4.25965 584.453 4.30481C583.817 4.48449 582.531 4.70716 581.341 4.87226C580.865 4.95329 580.646 5.0287 580.42 5.10641" stroke="white" stroke-width="3" stroke-linecap="round"/>
<path d="M490.144 5.03565C490.138 5.03565 490.131 5.03565 489.001 5.03998C487.87 5.04431 485.616 5.05298 484.258 5.06049C482.02 5.07289 481.599 4.83953 481.133 4.74336C480.988 4.71347 480.786 4.764 480.541 4.80926C480.297 4.85451 480.015 4.92649 480.937 5.5232C481.86 6.11992 483.997 7.2392 485.163 7.84107C487.081 8.8315 488.371 9.69185 488.689 10.073C488.791 10.1958 487.829 9.06351 486.866 7.58321C486.001 6.25353 485.345 5.89273 484.986 5.70007C484.772 5.58507 484.439 5.57673 484.152 5.61232C483.202 5.73021 484.539 8.20424 484.608 9.34203C484.889 9.7403 485.192 10.0269 485.394 10.2577C485.477 10.3602 485.524 10.4331 485.664 10.6229" stroke="white" stroke-width="3" stroke-linecap="round"/>
<path d="M484.837 85.5672C484.837 85.5708 484.837 85.5743 483.504 85.5779C482.171 85.5815 479.505 85.5851 478.162 85.555C476.818 85.5249 476.878 85.461 477.572 85.1209C478.267 84.7808 479.594 84.1663 480.493 83.6843C481.866 82.948 482.558 82.2082 483.22 81.377C483.611 80.8849 484.025 80.1809 483.687 80.2981C481.981 80.8898 480.812 82.6059 480.456 82.8621C479.713 83.3968 481.005 81.1699 481.343 80.8565C482.08 80.1756 481.618 83.6678 481.719 83.8633C481.85 84.119 482.094 84.2615 482.258 84.3611C482.712 84.4634 483.255 84.4864 484.222 84.4864C484.447 84.4765 484.563 84.4569 484.785 84.4366" stroke="white" stroke-width="3" stroke-linecap="round"/>
<path d="M467.268 84.5285C467.261 84.5285 467.166 84.4477 466.943 84.2268C466.636 83.8897 465.893 83.2306 464.977 82.4996C464.627 82.2246 464.507 82.1445 464.176 81.9688" stroke="white" stroke-width="3" stroke-linecap="round"/>
<path d="M41.3848 151.51C41.4081 151.51 44.1851 151.51 48.5138 151.489C50.3573 151.48 51.1077 151.233 53.346 150.631C55.1138 150.156 58.1896 149.433 60.4877 148.767C62.7857 148.101 64.2191 147.54 65.6349 147.161C67.0507 146.782 68.4054 146.603 68.0537 146.645C67.7021 146.686 65.603 146.953 63.1462 147.486C60.6894 148.02 57.9385 148.81 56.4435 149.227C54.7991 149.686 52.7254 149.69 49.6895 149.723C48.5605 149.735 48.2684 149.792 48.36 149.82C48.4516 149.849 48.9361 149.863 51.5278 149.609C54.1195 149.355 58.8038 148.834 62.9558 148.172C67.1078 147.51 70.5855 146.724 72.7543 146.195C74.923 145.665 75.6772 145.417 77.6752 145.021C79.6732 144.626 82.892 144.091 84.8369 143.731C87.3673 143.262 88.7932 142.851 89.9965 142.453C90.394 142.322 90.1921 141.975 89.9897 141.754C89.7874 141.533 89.548 141.355 89.1666 141.268C88.7852 141.18 88.2692 141.188 86.8552 141.436C85.4412 141.683 83.145 142.171 81.3988 142.485C79.6526 142.798 78.526 142.922 76.9739 143.189C75.4217 143.456 73.478 143.862 72.1506 144.161C70.1711 144.642 68.3573 144.9 66.3602 145.068C65.5049 145.164 64.9709 145.281 64.1316 145.439" stroke="white" stroke-width="3" stroke-linecap="round"/>
<path d="M87.1426 143.738C87.1455 143.738 87.1485 143.738 90.9654 143.719C94.7823 143.699 102.413 143.66 106.52 143.6C110.626 143.54 110.978 143.46 111.214 143.4C111.45 143.34 111.56 143.303 111.608 143.239C111.656 143.175 111.64 143.086 111.381 142.946C111.122 142.805 110.62 142.617 108.919 142.278C107.217 141.939 104.331 141.455 102.038 141.233C99.7442 141.011 98.1311 141.065 96.7073 141.189C95.2834 141.313 94.0976 141.505 92.9682 141.784C91.8387 142.062 90.8015 142.421 90.0976 142.627C89.3936 142.832 89.0544 142.873 91.7422 142.194C94.4299 141.516 100.155 140.118 103.17 139.369C106.184 138.621 106.316 138.564 106.813 138.259C108.182 137.42 109.201 136.77 109.332 136.681C109.356 136.665 109.14 136.672 106.15 137.49C103.16 138.309 97.3622 139.93 94.0447 140.804C90.7273 141.678 90.0656 141.756 89.594 141.781C89.1224 141.807 88.8608 141.779 88.6454 141.763C88.43 141.747 88.2687 141.743 88.1304 141.64" stroke="white" stroke-width="3" stroke-linecap="round"/>
<path d="M119.959 139.536C119.972 139.536 119.984 139.536 121.852 139.401C123.72 139.267 127.443 138.998 129.269 138.86C131.095 138.721 130.912 138.722 128.617 139.316C126.323 139.91 121.924 141.097 118.55 141.746C115.177 142.395 112.964 142.47 111.648 142.479C109.979 142.492 109.346 142.23 108.866 141.961C108.654 141.842 108.523 141.728 108.588 141.58C108.654 141.432 108.923 141.247 111.138 140.677C113.353 140.107 117.505 139.159 119.751 138.633C121.996 138.107 122.209 138.033 122.399 137.981C122.588 137.929 122.747 137.902 120.651 138.407C118.555 138.913 114.2 139.952 111.653 140.506C109.105 141.06 108.498 141.097 108.118 141.097C107.605 141.098 107.409 140.961 107.293 140.832C107.18 140.707 107.129 140.54 107.152 140.358C107.179 140.134 107.47 139.955 108.471 139.254C109.345 138.641 111.029 137.6 112.01 136.951C113.254 136.129 113.675 135.782 114.49 135.361C115.111 135.041 116.182 134.562 116.778 134.292C117.375 134.022 117.472 133.99 118.23 133.863C118.989 133.737 120.407 133.517 121.698 133.397C122.99 133.277 124.111 133.263 125.698 133.08C127.284 132.897 129.302 132.545 132.127 132.301C134.952 132.058 138.522 131.933 140.299 131.923C142.075 131.912 141.948 132.018 141.827 132.106C141.707 132.193 141.596 132.259 140.935 132.448C140.274 132.636 139.068 132.946 136.672 133.218C134.276 133.489 130.728 133.714 126.566 134.545C122.404 135.376 117.735 136.805 115.197 137.553C112.405 138.376 111.95 138.392 111.647 138.484C111.389 138.562 111.033 138.724 110.609 138.841C110.439 138.889 110.356 138.884 110.957 138.756C111.559 138.628 112.846 138.371 116.633 138.127C120.419 137.883 126.666 137.66 133.102 137.431" stroke="white" stroke-width="3" stroke-linecap="round"/>
<path d="M150.861 132.533C150.864 132.536 150.867 132.539 148.856 132.61C146.844 132.681 142.817 132.82 140.132 132.994C137.447 133.167 136.225 133.371 135.384 133.537C134.542 133.702 134.117 133.823 133.045 134.058C131.973 134.294 130.266 134.64 129.304 134.855C128.165 135.108 127.941 135.268 127.813 135.414C127.736 135.502 127.669 135.643 127.672 135.726C127.675 135.809 127.758 135.838 130.164 135.722C132.57 135.606 137.295 135.345 140.633 134.989C143.97 134.634 145.776 134.192 147.328 133.874C148.879 133.557 150.12 133.376 150.973 133.231C152.259 133.013 152.951 132.848 153.445 132.799C153.889 132.754 154.992 132.559 156.414 132.237C157.649 131.956 158.663 130.871 159.191 130.389C159.313 130.278 159.518 130.198 159.679 130.123C159.839 130.048 159.965 130.002 159.162 129.888C158.358 129.774 156.621 129.592 154.944 129.502C153.266 129.413 151.701 129.422 150.835 129.432C149.968 129.441 149.847 129.451 149.712 129.47" stroke="white" stroke-width="7" stroke-linecap="round"/>
<path d="M161.088 132.24C161.085 132.243 161.081 132.246 163.105 132.247C165.128 132.247 169.178 132.244 173.377 131.846C177.576 131.447 181.802 130.653 184.05 130.218C186.854 129.675 187.382 129.204 187.508 129.047C188.172 128.217 187.605 126.66 188.007 125.924C188.098 125.759 188.157 125.697 188.061 125.671C187.964 125.644 187.719 125.659 185.879 125.815C184.039 125.972 180.612 126.27 178.362 126.5C176.113 126.731 175.145 126.884 173.999 126.963C172.854 127.043 171.56 127.043 169.922 127.174C168.285 127.304 166.342 127.565 164.86 127.711C163.379 127.858 162.417 127.882 161.407 127.916" stroke="white" stroke-width="7" stroke-linecap="round"/>
<path d="M189.215 128.701C189.215 128.704 189.215 128.708 191.191 128.711C193.168 128.714 197.121 128.718 199.379 128.668C201.637 128.619 202.08 128.517 202.792 128.317C203.504 128.117 204.473 127.822 206.636 127.355C208.798 126.888 212.125 126.259 214.914 125.641C217.703 125.023 219.853 124.434 221.066 124.082C223.123 123.486 223.882 122.616 224.046 122.248C224.194 121.918 223.512 121.406 222.9 120.972C222.6 120.759 222.061 120.656 220.817 120.517C220.021 120.428 218.875 120.457 218.227 120.47C217.58 120.482 217.463 120.516 216.743 120.831C216.022 121.146 214.703 121.741 213.601 122.17C212.5 122.599 211.656 122.844 209.253 123.166C206.849 123.489 202.91 123.881 200.391 124.169C197.872 124.457 196.892 124.628 195.501 124.765C194.111 124.902 192.341 125 191.388 125.059C190.436 125.119 190.355 125.138 190.232 125.178" stroke="white" stroke-width="7" stroke-linecap="round"/>
<path d="M222.932 124.004C222.941 124.004 222.95 124.004 225.801 123.935C228.653 123.865 234.346 123.726 239.689 123.086C245.031 122.446 249.85 121.31 252.425 120.687C255.192 120.018 255.466 119.83 255.605 119.615C256.121 118.816 254.686 117.456 253.96 117.016C253.211 116.562 252.203 116.478 251.56 116.224C251.168 116.07 250.395 116.155 248.678 116.445C247.569 116.632 246.006 117.049 244.097 117.379C242.189 117.709 239.99 117.978 237.442 118.356C234.895 118.734 232.066 119.214 230.174 119.486C228.283 119.758 227.414 119.809 226.711 119.904C226.008 119.998 225.497 120.136 225.194 120.232C224.89 120.329 224.809 120.38 224.633 120.625" stroke="white" stroke-width="7" stroke-linecap="round"/>
<path d="M257.996 118.903C258.009 118.903 258.021 118.903 260.007 118.872C261.993 118.841 265.951 118.778 270.614 118.124C275.277 117.471 280.524 116.227 284.828 115.447C289.131 114.667 292.333 114.387 294.048 114.229C295.897 114.058 296.153 113.908 296.363 113.708C296.529 113.549 296.56 113.241 296.52 112.879C296.483 112.555 295.961 112.178 295.35 111.69C294.84 111.281 294.202 111.077 293.088 110.862C292.316 110.712 291.092 110.676 290.043 110.68C288.146 110.688 287.085 110.926 286.311 111.17C285.726 111.354 284.765 111.708 283.697 112.011C282.63 112.314 281.489 112.568 279.418 112.909C277.347 113.251 274.381 113.673 271.727 114.114C269.073 114.554 266.822 115 264.45 115.27C262.079 115.54 259.656 115.62 258.362 115.673C257.068 115.727 256.976 115.751 256.838 115.839" stroke="white" stroke-width="7" stroke-linecap="round"/>
<path d="M297.256 115.416C297.256 115.419 297.256 115.422 300.517 115.422C303.778 115.422 310.301 115.418 314.677 115.268C319.054 115.117 321.087 114.82 323.27 114.295C325.453 113.769 327.723 113.023 329.214 112.458C330.704 111.894 331.347 111.534 331.968 111.218C332.588 110.902 333.166 110.641 331.543 110.064C329.92 109.486 326.078 108.6 323.343 108.118C320.608 107.636 319.096 107.585 318.193 107.575C317.04 107.562 316.499 107.707 315.125 108.186C314.028 108.568 312.15 109.317 308.926 110.062C305.702 110.807 301.195 111.547 298.653 111.976C296.111 112.405 295.671 112.501 295.307 112.554C294.943 112.606 294.67 112.613 294.51 112.562C294.35 112.511 294.311 112.401 294.291 112.289C294.271 112.178 294.271 112.067 294.342 111.985C294.414 111.902 294.557 111.851 295.067 111.776C295.577 111.701 296.45 111.603 300.902 111.471C305.354 111.338 313.359 111.172 317.608 111.067C321.856 110.961 322.105 110.921 322.616 110.798C323.889 110.471 324.763 110.246 324.94 110.211C325.029 110.189 325.117 110.16 325.356 110.032" stroke="white" stroke-width="7" stroke-linecap="round"/>
<path d="M335.021 112.415C335.033 112.415 335.045 112.415 337.814 112.262C340.583 112.108 346.109 111.801 350.196 111.475C354.283 111.149 356.765 110.814 358.627 110.54C360.489 110.266 361.655 110.064 362.32 109.94C363.115 109.792 363.428 109.654 363.625 109.433C363.869 109.16 362.325 108.129 360.657 106.835C359.973 106.305 359.587 106.073 358.999 105.813C358.41 105.552 357.622 105.28 356.881 105.154C356.14 105.028 355.471 105.056 352.493 105.526C349.515 105.995 344.25 106.905 340.429 107.46C336.609 108.015 334.394 108.189 333.106 108.302C331.819 108.416 331.527 108.465 331.265 108.492C331.003 108.519 330.781 108.523 330.537 108.546" stroke="white" stroke-width="7" stroke-linecap="round"/>
<path d="M360.391 104.714C360.384 104.714 360.377 104.714 363.983 104.702C367.588 104.689 374.807 104.663 379.945 104.48C385.083 104.296 387.922 103.956 389.727 103.696C391.532 103.435 392.217 103.264 392.898 103.168C393.58 103.072 394.237 103.056 394.546 103.081C394.855 103.107 394.796 103.174 394.407 103.378C393.315 103.951 392.067 104.449 390.956 104.781C390.346 104.962 389.612 105.056 388.949 105.124C388.285 105.191 387.707 105.2 386.999 105.141C386.29 105.081 385.469 104.954 384.812 104.89C384.156 104.827 383.689 104.832 380.074 105.074C376.458 105.316 369.708 105.793 362.753 106.286" stroke="white" stroke-width="7" stroke-linecap="round"/>
<path d="M363.641 108.378C363.638 108.378 363.635 108.378 366.359 108.32C369.082 108.262 374.533 108.146 377.527 108.052C380.521 107.959 380.891 107.893 381.735 107.631C382.579 107.37 383.885 106.916 384.636 106.666C385.386 106.416 385.541 106.384 385.9 106.352C386.258 106.32 386.815 106.289 387.355 106.229" stroke="white" stroke-width="7" stroke-linecap="round"/>
<path d="M392.762 105.834C392.759 105.834 392.755 105.834 395.04 105.827C397.326 105.821 401.9 105.809 405.333 105.657C408.767 105.505 410.921 105.215 412.457 104.962C413.994 104.71 414.847 104.505 415.721 104.342C416.595 104.179 417.464 104.064 418.252 103.919C419.04 103.774 419.721 103.602 420.166 103.473C420.611 103.344 420.801 103.264 418.203 103.177C415.605 103.089 410.214 102.998 405.707 103.133C401.2 103.268 397.741 103.631 395.909 103.83C394.078 104.029 393.98 104.053 393.747 104.107" stroke="white" stroke-width="7" stroke-linecap="round"/>
<path d="M417.73 105.233C417.73 105.23 417.73 105.227 419.301 105.207C420.871 105.187 424.012 105.15 426.622 104.993C429.232 104.835 431.216 104.558 433.589 104.34C435.961 104.123 438.662 103.972 440.183 103.884C441.704 103.795 441.963 103.773 442.229 103.75" stroke="white" stroke-width="7" stroke-linecap="round"/>
<path d="M459.237 102.83C459.234 102.83 459.231 102.83 458.43 102.83C457.629 102.83 456.03 102.83 454.589 102.92C453.148 103.01 451.914 103.189 450.909 103.286C449.17 103.454 448.098 103.438 447.032 103.498C446.272 103.521 445.068 103.53 444.403 103.542C443.738 103.555 443.649 103.57 443.557 103.586" stroke="white" stroke-width="7" stroke-linecap="round"/>
<path d="M419.496 103.088C419.496 103.082 420.804 103.075 422.943 103.039C423.774 103.025 424.087 102.944 428.639 102.842C433.19 102.739 441.971 102.598 446.564 102.53C451.156 102.462 451.295 102.47 451.438 102.478" stroke="white" stroke-width="7" stroke-linecap="round"/>
<path d="M458.244 104.315C458.251 104.311 458.258 104.308 460.938 104.297C463.619 104.287 468.972 104.269 472.977 104.198C476.983 104.128 479.479 104.004 480.85 103.922C482.221 103.84 482.392 103.804 481.51 103.414C480.628 103.023 478.69 102.281 477.369 101.836C476.047 101.391 475.401 101.267 474.652 101.199C473.903 101.132 473.069 101.125 471.943 101.178C470.817 101.23 469.425 101.342 467.737 101.527C466.049 101.711 464.109 101.966 462.928 102.097C460.865 102.328 460.364 102.143 459.98 102.064C459.737 102.013 459.329 101.726 458.873 101.386C458.699 101.257 458.676 101.17 459.04 101.049C459.403 100.927 460.162 100.763 461.529 100.674C462.895 100.585 464.846 100.577 468.909 100.908C472.973 101.24 479.091 101.913 482.343 102.286C485.595 102.659 485.797 102.713 485.992 102.776C486.371 102.909 486.699 103.068 486.939 103.241C487.04 103.328 487.098 103.414 487.158 103.502" stroke="white" stroke-width="4" stroke-linecap="round"/>
<path d="M479.452 101.269C479.159 101.25 478.583 101.21 478.519 101.148C478.494 101.125 478.545 101.084 481.856 101.18C485.167 101.276 491.752 101.501 495.555 101.583C499.359 101.665 500.182 101.597 500.59 101.58C500.999 101.562 500.968 101.597 500.505 101.758C500.042 101.92 499.147 102.206 498.61 102.365C498.073 102.525 497.92 102.549 497.811 102.561C497.702 102.573 497.641 102.571 497.578 102.57" stroke="white" stroke-width="4" stroke-linecap="round"/>
<path d="M501.024 101.889C501.022 101.889 501.02 101.889 502.515 101.89C504.011 101.891 507.004 101.893 509.549 101.9C512.094 101.907 514.101 101.918 515.29 101.899C516.48 101.88 516.791 101.831 517.154 101.805C517.517 101.778 517.923 101.777 518.34 101.775" stroke="white" stroke-width="4" stroke-linecap="round"/>
<path d="M518.52 102.129C518.52 102.127 518.52 102.126 521.316 102.124C524.113 102.122 529.706 102.12 533.108 102.193C536.509 102.265 537.55 102.413 538.108 102.494C538.667 102.575 538.712 102.586 538.758 102.596" stroke="white" stroke-width="4" stroke-linecap="round"/>
<path d="M539.727 102.354L547.234 102.359" stroke="white" stroke-width="4" stroke-linecap="round"/>
</g>
<defs>
<clipPath id="clip0_4709_630">
<rect width="613" height="162" fill="white"/>
</clipPath>
</defs>
</svg>
