<svg width="1006" height="282" viewBox="0 0 1006 282" fill="none" xmlns="http://www.w3.org/2000/svg">
<path d="M396.668 55.1914C397.669 54.1635 398.869 53.3502 400.197 52.8016C401.524 52.253 402.95 51.9807 404.387 52.0014C405.87 51.9783 407.344 52.2483 408.722 52.7959C410.1 53.3434 411.356 54.1576 412.416 55.1914C413.509 56.2145 414.372 57.4561 414.95 58.8347C415.528 60.2133 415.807 61.6979 415.769 63.1914C415.771 64.6236 415.474 66.0407 414.897 67.3525C414.319 68.6643 413.475 69.8422 412.416 70.8114C411.369 71.8683 410.117 72.7029 408.737 73.2649C407.357 73.8269 405.877 74.1047 404.387 74.0813C402.943 74.1014 401.51 73.8209 400.181 73.2578C398.852 72.6947 397.656 71.8615 396.668 70.8114C395.645 69.8223 394.833 68.6375 394.281 67.3281C393.729 66.0186 393.449 64.6116 393.456 63.1914C393.414 61.7099 393.677 60.2355 394.229 58.8594C394.782 57.4834 395.612 56.2349 396.668 55.1914ZM413.731 221.791C413.757 223.018 413.531 224.238 413.067 225.374C412.603 226.511 411.91 227.541 411.031 228.401C410.18 229.25 409.169 229.924 408.057 230.383C406.944 230.843 405.752 231.08 404.547 231.08C403.343 231.08 402.15 230.843 401.038 230.383C399.925 229.924 398.914 229.25 398.063 228.401C397.187 227.54 396.496 226.51 396.033 225.373C395.571 224.236 395.346 223.018 395.373 221.791V103.521C395.358 102.312 395.596 101.112 396.073 99.9997C396.55 98.8872 397.256 97.8863 398.144 97.0614C398.998 96.1977 400.02 95.515 401.146 95.0545C402.272 94.5939 403.48 94.365 404.698 94.3814C405.894 94.3594 407.081 94.5864 408.184 95.0479C409.286 95.5094 410.28 96.1952 411.101 97.0614C411.952 97.9078 412.623 98.9158 413.074 100.025C413.526 101.135 413.749 102.324 413.731 103.521V221.791Z" fill="#0D0A0B"/>
<path d="M198.325 228.011C189.713 233.711 178.722 231.271 173.784 222.581L122.595 132.451C117.657 123.761 120.588 112.091 129.25 106.451C137.872 100.761 148.862 103.191 153.8 111.881L175.149 149.451L205.03 202.011C209.928 210.661 206.947 222.321 198.325 228.011Z" fill="#0D0A0B"/>
<path d="M277.025 211.41C277.068 214.715 276.294 217.981 274.772 220.917C273.249 223.854 271.024 226.373 268.293 228.25C259.671 233.95 248.409 231.03 243.13 221.74L160.435 76.25L154.874 66.38L148.059 54.38C147.146 52.6361 145.771 51.175 144.083 50.1553C142.394 49.1357 140.458 48.5966 138.484 48.5966C136.51 48.5966 134.573 49.1357 132.885 50.1553C131.197 51.175 129.822 52.6361 128.908 54.38L122.103 66.38L116.453 76.33L33.7775 221.74C28.5582 230.91 17.5074 233.87 8.92575 228.45C0.0630493 222.86 -2.6068 210.21 2.76301 200.77L103.424 23.66L105.522 19.97C108.72 14.1801 113.302 9.26507 118.861 5.66C124.695 1.96826 131.462 0.00526701 138.373 0C144.067 0.0480936 149.675 1.38571 154.774 3.91165C159.872 6.4376 164.327 10.0857 167.802 14.58C169.082 16.2049 170.233 17.9268 171.245 19.73L172.61 22.13L274.315 201.11C276.095 204.253 277.029 207.801 277.025 211.41Z" fill="#0D0A0B"/>
<path d="M103.113 231.758C119.1 231.758 132.06 218.846 132.06 202.918C132.06 186.99 119.1 174.078 103.113 174.078C87.1262 174.078 74.1663 186.99 74.1663 202.918C74.1663 218.846 87.1262 231.758 103.113 231.758Z" fill="#0D0A0B"/>
<path d="M318.638 222.09C318.662 223.283 318.435 224.468 317.971 225.568C317.508 226.669 316.819 227.66 315.948 228.48C314.208 230.154 311.884 231.09 309.464 231.09C307.045 231.09 304.721 230.154 302.981 228.48C302.11 227.66 301.421 226.669 300.958 225.568C300.494 224.468 300.267 223.283 300.291 222.09V54.3299C300.255 53.1248 300.476 51.9259 300.94 50.8123C301.403 49.6987 302.099 48.6958 302.981 47.8699C304.742 46.2363 307.058 45.3281 309.464 45.3281C311.871 45.3281 314.187 46.2363 315.948 47.8699C316.83 48.6958 317.526 49.6987 317.989 50.8123C318.453 51.9259 318.674 53.1248 318.638 54.3299V222.09Z" fill="#0D0A0B"/>
<path d="M366.274 222.089C366.296 223.283 366.067 224.468 365.602 225.568C365.137 226.669 364.446 227.66 363.574 228.479C361.836 230.152 359.513 231.088 357.095 231.088C354.678 231.088 352.355 230.152 350.616 228.479C349.743 227.661 349.051 226.67 348.586 225.569C348.121 224.469 347.893 223.283 347.916 222.089V54.3289C347.88 53.1229 348.102 51.9228 348.567 50.8089C349.033 49.695 349.731 48.6927 350.616 47.8689C352.376 46.236 354.691 45.3281 357.095 45.3281C359.5 45.3281 361.815 46.236 363.574 47.8689C364.457 48.6943 365.154 49.6968 365.62 50.8104C366.085 51.9239 366.308 53.1232 366.274 54.3289V222.089Z" fill="#0D0A0B"/>
<path d="M434.436 163.75C434.386 154.441 436.254 145.22 439.926 136.66C443.419 128.435 448.481 120.963 454.831 114.66C461.208 108.378 468.721 103.356 476.973 99.8598C485.475 96.2802 494.61 94.43 503.84 94.418C513.07 94.406 522.21 96.2324 530.721 99.7898C538.879 103.241 546.315 108.187 552.642 114.37C558.949 120.584 563.993 127.952 567.497 136.07C571.165 144.504 573.12 153.579 573.248 162.77V221.66C573.273 222.895 573.047 224.122 572.585 225.268C572.123 226.414 571.434 227.455 570.558 228.33C569.707 229.225 568.676 229.933 567.534 230.408C566.391 230.884 565.162 231.116 563.924 231.09C562.709 231.124 561.5 230.895 560.383 230.418C559.265 229.942 558.264 229.229 557.45 228.33C555.758 226.524 554.843 224.13 554.901 221.66L554.75 209.18C548.338 216.245 540.654 222.052 532.097 226.3C523.353 230.669 513.694 232.907 503.912 232.83C494.653 232.884 485.481 231.032 476.973 227.39C468.721 223.894 461.208 218.872 454.831 212.59C448.475 206.285 443.403 198.814 439.896 190.59C436.243 182.113 434.384 172.975 434.436 163.75ZM452.794 163.75C452.749 170.513 454.117 177.211 456.809 183.42C459.382 189.419 463.062 194.883 467.659 199.53C472.29 204.196 477.78 207.931 483.828 210.53C490.179 213.209 497.006 214.589 503.902 214.589C510.799 214.589 517.626 213.209 523.977 210.53C536.154 205.35 545.823 195.642 550.926 183.47C553.564 177.247 554.902 170.555 554.86 163.8C554.926 157.104 553.653 150.463 551.115 144.263C548.578 138.063 544.826 132.428 540.08 127.688C535.334 122.947 529.688 119.195 523.472 116.651C517.255 114.107 510.593 112.822 503.872 112.87C497.016 112.826 490.224 114.188 483.919 116.87C471.666 122.01 461.918 131.722 456.758 143.93C454.088 150.196 452.739 156.942 452.794 163.75Z" fill="#0D0A0B"/>
<path d="M721.234 222.092C721.263 223.301 721.045 224.502 720.594 225.625C720.144 226.747 719.469 227.767 718.612 228.622C717.754 229.478 716.731 230.151 715.605 230.601C714.479 231.051 713.273 231.269 712.06 231.242C710.868 231.267 709.683 231.047 708.58 230.597C707.476 230.146 706.478 229.474 705.646 228.622C704.785 227.769 704.109 226.75 703.658 225.627C703.208 224.504 702.993 223.301 703.026 222.092V160.712C702.839 145.232 699.366 133.355 692.608 125.082C685.85 116.809 676.408 112.669 664.284 112.662C658.538 112.625 652.85 113.812 647.602 116.142C642.449 118.44 637.798 121.722 633.911 125.802C629.896 130.037 626.71 134.982 624.517 140.382C622.154 146.148 620.872 152.296 620.733 158.522V221.792C620.759 223.019 620.533 224.238 620.069 225.375C619.604 226.512 618.911 227.542 618.033 228.402C617.183 229.252 616.174 229.926 615.062 230.387C613.95 230.847 612.758 231.084 611.554 231.084C610.35 231.084 609.158 230.847 608.046 230.387C606.934 229.926 605.925 229.252 605.075 228.402C604.196 227.542 603.504 226.512 603.039 225.375C602.575 224.238 602.349 223.019 602.375 221.792V103.532C602.359 102.322 602.598 101.123 603.075 100.01C603.552 98.8978 604.257 97.897 605.145 97.072C606 96.2083 607.021 95.5257 608.148 95.0651C609.274 94.6046 610.482 94.3756 611.7 94.392C612.897 94.3705 614.085 94.5977 615.19 95.0591C616.294 95.5205 617.29 96.2061 618.113 97.072C618.962 97.9189 619.631 98.9272 620.081 100.037C620.531 101.147 620.753 102.335 620.733 103.532V119.062C626.273 111.87 633.175 105.829 641.048 101.282C648.657 96.8409 657.321 94.5102 666.14 94.532C673.959 94.409 681.709 95.9963 688.844 99.182C695.554 102.244 701.481 106.781 706.178 112.452C711.198 118.63 714.95 125.732 717.219 133.352C719.896 142.227 721.249 151.445 721.234 160.712V222.092Z" fill="#0D0A0B"/>
<path d="M860.196 94.39C861.467 94.3548 862.729 94.6064 863.889 95.1259C865.048 95.6454 866.074 96.4194 866.891 97.39C868.024 98.4897 868.788 99.9111 869.079 101.46C869.372 102.96 869.271 104.51 868.788 105.96C868.552 107.062 868.053 108.091 867.333 108.96L866.46 109.96L769.14 213.24H862.947C865.408 213.182 867.792 214.095 869.581 215.78C870.453 216.581 871.144 217.559 871.608 218.646C872.072 219.734 872.298 220.908 872.271 222.09C872.294 223.283 872.067 224.468 871.604 225.568C871.141 226.669 870.452 227.66 869.581 228.48C868.706 229.334 867.668 230.005 866.529 230.454C865.389 230.902 864.171 231.118 862.947 231.09H750.221C748.502 231.128 746.809 230.674 745.343 229.78C743.982 228.966 742.853 227.82 742.06 226.45C741.107 224.964 740.673 223.207 740.826 221.45C740.978 219.663 741.679 217.966 742.833 216.59L742.974 216.3L743.556 215.72L840.855 112.39H751.425C750.224 112.41 749.031 112.189 747.917 111.741C746.803 111.293 745.791 110.626 744.941 109.78C744.09 108.947 743.414 107.953 742.952 106.857C742.491 105.761 742.253 104.584 742.253 103.395C742.253 102.206 742.491 101.029 742.952 99.933C743.414 98.8367 744.09 97.843 744.941 97.0099C745.791 96.1642 746.803 95.4973 747.917 95.0489C749.031 94.6006 750.224 94.3799 751.425 94.3999L860.196 94.39Z" fill="#0D0A0B"/>
<path d="M943.213 200.659L987.496 100.089C988.496 97.8372 990.319 96.0492 992.595 95.0893C993.698 94.5802 994.901 94.3223 996.116 94.3344C997.331 94.3465 998.529 94.6283 999.621 95.1593C1000.76 95.6179 1001.78 96.3063 1002.64 97.1807C1003.49 98.0552 1004.15 99.0967 1004.58 100.239C1005.45 102.602 1005.34 105.213 1004.29 107.499L951.373 226.009L950.931 227.169L929.231 275.929C928.751 277.067 928.046 278.097 927.158 278.957C926.27 279.818 925.218 280.492 924.063 280.939C922.908 281.386 921.675 281.597 920.437 281.559C919.199 281.521 917.981 281.236 916.856 280.719C915.791 280.294 914.841 279.627 914.081 278.771C913.321 277.915 912.773 276.894 912.479 275.789C911.91 273.405 912.168 270.899 913.212 268.679L933.457 222.529L882.479 107.299C881.951 106.194 881.659 104.991 881.621 103.767C881.583 102.544 881.8 101.325 882.258 100.189C882.694 99.0634 883.349 98.0347 884.186 97.1627C885.024 96.2908 886.026 95.5929 887.136 95.1093C888.227 94.5813 889.421 94.2954 890.633 94.2712C891.846 94.247 893.05 94.4852 894.162 94.9693C895.306 95.4388 896.346 96.1294 897.221 97.0013C898.096 97.8732 898.789 98.9091 899.261 100.049L943.213 200.659Z" fill="#0D0A0B"/>
</svg>
